<?xml version="1.0" standalone="no"?>
<!DOCTYPE svg PUBLIC "-//W3C//DTD SVG 20010904//EN"
 "http://www.w3.org/TR/2001/REC-SVG-20010904/DTD/svg10.dtd">
<svg version="1.0" xmlns="http://www.w3.org/2000/svg"
 width="360.000000pt" height="360.000000pt" viewBox="0 0 360.000000 360.000000"
 preserveAspectRatio="xMidYMid meet">

<g transform="translate(0.000000,360.000000) scale(0.100000,-0.100000)"
fill="#000000" stroke="none">
<path d="M162 3563 c-2 -21 -6 -40 -10 -43 -26 -19 -33 -53 -21 -106 7 -30 17
-54 23 -55 6 0 66 0 134 1 86 1 122 -2 122 -11 0 -6 7 -9 15 -6 8 4 18 1 21
-5 14 -22 21 26 8 51 -8 15 -11 41 -7 66 5 36 2 45 -22 69 -16 17 -34 25 -44
22 -57 -19 -101 -29 -106 -25 -2 3 -6 22 -7 42 l-3 37 -50 0 -51 0 -2 -37z"/>
<path d="M1167 3589 c-12 -7 -15 -17 -11 -35 5 -19 3 -23 -10 -18 -9 3 -16 1
-16 -5 0 -12 37 -11 58 2 7 5 12 4 12 -2 0 -6 15 -11 33 -11 27 0 35 6 54 40
l21 40 -61 0 c-34 0 -70 -5 -80 -11z"/>
<path d="M2352 3592 c-15 -10 0 -62 18 -62 5 0 9 -3 8 -7 -1 -5 6 -20 16 -35
13 -21 24 -26 40 -22 21 5 22 2 23 -49 l1 -54 85 -84 c82 -81 86 -86 89 -134
2 -33 12 -63 28 -85 37 -55 129 -140 150 -140 10 0 21 -4 24 -8 3 -4 28 -14
55 -22 46 -12 51 -17 51 -41 0 -15 -4 -31 -10 -34 -18 -11 -11 -73 13 -102 12
-15 29 -41 37 -56 8 -16 27 -36 42 -45 15 -9 28 -19 28 -23 0 -4 15 -23 33
-42 54 -57 77 -100 84 -156 4 -36 -21 -71 -52 -71 -24 0 -55 -19 -55 -33 1 -7
9 -30 20 -52 11 -22 19 -45 20 -51 0 -7 14 -25 31 -42 29 -28 33 -29 62 -17
17 7 33 18 35 24 2 6 15 11 28 11 13 0 24 4 24 9 0 10 41 27 88 36 37 8 53
-14 34 -46 -8 -12 -8 -19 -1 -21 6 -2 12 -16 12 -32 2 -24 5 -27 29 -22 15 3
27 2 27 -2 -3 -21 3 -30 26 -36 14 -4 25 -10 25 -14 0 -4 17 -7 37 -6 l38 1 3
787 2 786 -617 0 c-340 0 -624 -4 -631 -8z"/>
<path d="M1565 3474 c-7 -11 -27 -17 -61 -19 -52 -2 -88 -16 -115 -44 -8 -9
-51 -88 -94 -176 l-79 -159 2 -105 2 -105 -30 -27 c-29 -27 -31 -34 -35 -119
-2 -47 -17 -135 -25 -145 -4 -5 -11 -30 -15 -55 -4 -25 -12 -51 -17 -57 -6 -7
-8 -22 -5 -34 3 -12 2 -29 -2 -38 -21 -40 -31 -94 -37 -182 -7 -124 -9 -132
-36 -144 -22 -10 -23 -17 -32 -175 -19 -326 -8 -459 50 -620 14 -41 38 -96 51
-122 36 -69 50 -163 33 -222 -14 -52 -36 -72 -133 -125 -32 -17 -73 -42 -90
-54 -18 -13 -50 -33 -72 -44 -22 -11 -53 -28 -70 -36 -16 -9 -37 -18 -45 -21
-8 -3 -42 -22 -75 -41 -33 -19 -93 -52 -134 -72 -90 -45 -156 -109 -198 -193
-34 -67 -123 -304 -123 -327 0 -11 291 -13 1618 -13 l1617 0 -3 87 c-2 49 -12
144 -23 212 -26 166 -47 197 -178 263 -52 26 -105 57 -118 70 -20 19 -40 24
-112 29 -101 7 -159 33 -191 85 -11 17 -42 52 -70 78 l-49 46 -84 0 c-89 0
-81 -3 -174 66 -13 9 -55 28 -95 43 l-73 27 -3 151 c-1 83 2 162 7 177 10 25
13 26 68 20 53 -5 61 -3 98 23 39 29 129 170 169 267 17 41 23 181 7 190 -10
7 -2 54 10 62 5 3 9 14 9 24 0 11 8 34 18 52 10 18 21 44 25 58 3 14 8 36 12
50 4 14 8 33 9 43 1 9 8 23 14 29 7 7 12 20 12 29 0 10 4 20 9 24 8 4 21 85
25 150 1 6 7 20 14 33 10 17 11 27 2 37 -7 8 -7 15 -1 19 12 8 -4 60 -24 76
-7 6 -11 19 -8 30 3 10 -4 32 -14 47 -17 24 -18 31 -6 53 7 14 13 36 13 49 0
20 -4 23 -25 19 -32 -7 -35 24 -4 46 28 19 19 42 -19 51 -28 6 -29 8 -24 54 5
53 -12 77 -33 48 -15 -21 -29 -21 -46 -1 -11 14 -10 18 10 33 l24 18 -24 17
c-13 9 -31 16 -41 16 -10 0 -18 7 -18 15 0 8 -13 24 -30 37 -16 12 -30 31 -30
42 0 48 -37 132 -76 173 -22 24 -46 43 -52 43 -6 0 -12 -19 -14 -42 l-3 -42
-38 57 c-35 54 -75 79 -63 40 12 -39 14 -73 5 -73 -5 0 -9 4 -9 10 0 35 -165
172 -211 174 -15 1 -31 5 -35 9 -4 4 -14 7 -22 7 -12 0 -12 -4 2 -25 25 -38
19 -39 -24 -5 -41 32 -60 33 -60 0 0 -10 -4 -22 -10 -25 -6 -4 -10 7 -10 25 0
38 -20 47 -54 25 -21 -14 -29 -15 -41 -5 -11 9 -19 10 -28 1 -11 -8 -19 -5
-37 14 -26 28 -50 33 -50 10 0 -22 -17 -18 -23 5 -6 24 -19 26 -32 4z m435
-65 c0 -6 -4 -7 -10 -4 -5 3 -10 11 -10 16 0 6 5 7 10 4 6 -3 10 -11 10 -16z
m-283 -525 c-3 -3 -12 -4 -19 -1 -8 3 -5 6 6 6 11 1 17 -2 13 -5z m-60 -10
c-3 -3 -12 -4 -19 -1 -8 3 -5 6 6 6 11 1 17 -2 13 -5z m138 -4 c8 -13 -5 -13
-25 0 -13 8 -13 10 2 10 9 0 20 -4 23 -10z m-176 -4 c-2 -2 -22 -6 -44 -9 -28
-5 -34 -4 -20 3 19 8 73 14 64 6z m-89 -21 c0 -3 -20 -10 -45 -16 -24 -6 -74
-31 -111 -55 -83 -55 -97 -57 -24 -4 67 48 180 96 180 75z m372 -26 c133 -68
213 -145 276 -267 48 -92 68 -149 76 -217 3 -28 9 -65 12 -84 5 -23 4 -32 -4
-28 -5 4 -14 26 -18 50 -4 23 -9 35 -11 26 -2 -9 5 -45 17 -79 12 -34 19 -64
16 -67 -2 -2 -7 4 -10 15 -9 28 -95 106 -144 131 -23 12 -73 28 -112 36 -132
28 -232 13 -238 -36 -2 -14 3 -30 10 -36 7 -6 65 -13 128 -16 63 -3 131 -11
150 -16 48 -15 127 -77 167 -131 18 -25 40 -53 50 -62 14 -15 15 -33 9 -127
-3 -61 -9 -117 -12 -125 -13 -34 -67 -39 -217 -17 -78 11 -166 22 -195 25 -64
7 -154 43 -242 96 -85 51 -147 73 -187 65 l-32 -6 39 68 c21 37 41 82 45 98
l6 30 -15 -32 c-57 -124 -144 -227 -175 -208 -6 3 -11 2 -11 -4 0 -26 -204
-48 -240 -26 -16 10 -12 52 14 155 13 52 29 126 35 164 6 44 17 77 30 89 27
27 92 32 191 13 104 -19 132 -14 128 23 -6 55 -167 90 -270 58 -46 -14 -48
-14 -48 5 0 12 4 17 12 12 7 -4 8 -3 4 5 -4 6 0 18 8 27 9 8 16 21 16 27 0 7
-4 6 -10 -3 -13 -20 -13 0 1 38 6 18 15 30 19 27 4 -3 6 3 3 13 -2 9 3 30 11
46 23 45 90 135 104 141 7 2 -5 -17 -26 -43 -38 -44 -83 -122 -82 -139 1 -4
10 10 22 32 31 59 101 148 143 179 45 35 142 75 220 92 93 21 282 11 337 -17z
m78 -9 c18 -12 2 -12 -25 0 -13 6 -15 9 -5 9 8 0 22 -4 30 -9z m190 -86 c0 -2
-9 0 -20 6 -11 6 -20 13 -20 16 0 2 9 0 20 -6 11 -6 20 -13 20 -16z m31 -21
c13 -16 12 -17 -3 -4 -17 13 -22 21 -14 21 2 0 10 -8 17 -17z m-1182 -695 c-1
-7 -5 -24 -9 -38 -7 -22 -8 -21 -9 13 -1 20 4 37 9 37 6 0 10 -6 9 -12z m1478
-320 c-3 -8 -6 -5 -6 6 -1 11 2 17 5 13 3 -3 4 -12 1 -19z m36 -68 c-3 -12 -8
-19 -11 -16 -5 6 5 36 12 36 2 0 2 -9 -1 -20z m-37 -78 c-17 -16 -18 -16 -5 5
7 12 15 20 18 17 3 -2 -3 -12 -13 -22z m-72 -101 c3 -5 -1 -11 -9 -14 -9 -4
-12 -1 -8 9 6 16 10 17 17 5z m-215 -258 c0 -25 -1 -25 -8 -8 -5 11 -7 23 -4
28 8 14 13 7 12 -20z m-19 -7 c0 -2 -7 -7 -16 -10 -8 -3 -12 -2 -9 4 6 10 25
14 25 6z m-72 -61 c-21 -19 -43 -35 -50 -35 -7 0 1 8 17 18 17 11 36 26 44 35
7 10 16 17 20 17 3 0 -11 -16 -31 -35z m-83 -55 c-9 -14 -45 -32 -45 -23 0 7
24 22 48 32 2 0 0 -3 -3 -9z m-55 -23 c0 -2 -18 -18 -40 -36 -22 -17 -37 -26
-35 -19 6 15 75 65 75 55z m167 -28 c15 -29 16 -135 3 -286 -13 -143 -33 -190
-133 -308 -74 -86 -97 -123 -59 -94 15 13 16 12 4 -3 -8 -9 -19 -15 -25 -12
-7 2 -20 -8 -29 -23 -42 -72 -227 -223 -272 -223 -10 0 -36 -5 -58 -12 -32 -9
-48 -8 -92 5 -66 21 -86 43 -132 142 -80 174 -145 547 -97 562 15 5 43 -48 43
-81 0 -14 11 -50 25 -80 23 -50 48 -133 58 -196 3 -19 5 -17 6 10 1 38 -22
170 -33 189 -4 6 -11 39 -17 73 -5 35 -12 75 -15 89 -5 26 -4 26 68 33 94 9
255 41 337 66 36 11 66 18 68 16 2 -2 -8 -38 -21 -80 -32 -96 -56 -214 -55
-263 1 -33 3 -29 19 32 10 39 15 74 12 79 -3 5 -1 6 5 3 5 -3 24 29 41 71 18
42 47 104 65 137 30 56 38 63 142 121 61 35 115 61 120 60 6 -1 16 -13 22 -27z
m-961 -51 c16 -18 19 -25 7 -15 -20 18 -21 18 -25 0 -3 -11 -6 -6 -9 15 -3 17
-5 32 -4 32 1 0 14 -15 31 -32z m663 15 c0 -11 -3 -13 -6 -5 -2 6 -10 9 -15 6
-7 -4 -8 -2 -4 4 11 18 26 14 25 -5z m358 -40 c-3 -10 -5 -2 -5 17 0 19 2 27
5 18 2 -10 2 -26 0 -35z m-389 25 c7 -7 12 -16 12 -22 0 -5 -6 -1 -14 9 -12
17 -17 18 -40 7 -37 -16 -47 -15 -16 3 31 18 43 18 58 3z m62 -18 c-6 -11 -13
-20 -16 -20 -2 0 0 9 6 20 6 11 13 20 16 20 2 0 0 -9 -6 -20z m-645 -20 c3 -5
1 -10 -4 -10 -6 0 -11 5 -11 10 0 6 2 10 4 10 3 0 8 -4 11 -10z m460 1 c-12
-12 -65 -26 -65 -17 0 3 15 10 33 15 43 12 42 12 32 2z m-78 -27 c-3 -3 -12
-4 -19 -1 -8 3 -5 6 6 6 11 1 17 -2 13 -5z m-44 -11 c-7 -2 -19 -2 -25 0 -7 3
-2 5 12 5 14 0 19 -2 13 -5z m634 -45 c-2 -13 -4 -5 -4 17 -1 22 1 32 4 23 2
-10 2 -28 0 -40z m-690 36 c-3 -3 -12 -4 -19 -1 -8 3 -5 6 6 6 11 1 17 -2 13
-5z m-74 -11 c-23 -2 -64 -2 -90 0 -26 2 -7 3 42 3 50 0 71 -1 48 -3z m385
-18 c-6 -14 -13 -23 -15 -21 -5 5 15 46 22 46 3 0 -1 -11 -7 -25z m-511 -17
c-3 -8 -6 -5 -6 6 -1 11 2 17 5 13 3 -3 4 -12 1 -19z m469 -99 c-18 -41 -21
-29 -4 18 7 19 14 30 16 25 1 -4 -4 -24 -12 -43z m-609 -56 c-3 -10 -5 -2 -5
17 0 19 2 27 5 18 2 -10 2 -26 0 -35z m20 -145 c-3 -7 -5 -2 -5 12 0 14 2 19
5 13 2 -7 2 -19 0 -25z m946 17 c-3 -9 -8 -14 -10 -11 -3 3 -2 9 2 15 9 16 15
13 8 -4z m-43 -65 c-6 -11 -13 -20 -16 -20 -2 0 0 9 6 20 6 11 13 20 16 20 2
0 0 -9 -6 -20z m-866 -116 c3 -8 2 -12 -4 -9 -6 3 -10 10 -10 16 0 14 7 11 14
-7z m776 2 c0 -2 -8 -10 -17 -17 -16 -13 -17 -12 -4 4 13 16 21 21 21 13z"/>
<path d="M1211 2237 c-19 -7 -41 -23 -50 -37 -16 -24 -15 -24 19 4 30 25 40
28 91 24 43 -3 67 -11 96 -33 l38 -28 -29 31 c-28 30 -80 53 -116 51 -8 0 -30
-5 -49 -12z"/>
<path d="M1213 2209 c-22 -8 -38 -27 -47 -54 -5 -18 1 -22 47 -33 29 -6 68
-12 87 -12 19 0 50 -4 67 -9 18 -5 35 -6 37 -2 8 12 -31 68 -59 87 -31 21
-104 33 -132 23z m115 -29 c31 -19 50 -45 40 -56 -9 -9 -170 14 -182 26 -8 9
-5 16 13 31 30 25 87 24 129 -1z"/>
<path d="M1853 2150 c-35 -14 -28 -17 36 -12 48 3 68 0 105 -19 26 -12 54 -31
63 -41 9 -10 21 -18 26 -18 22 0 -40 54 -88 76 -52 25 -103 29 -142 14z"/>
<path d="M1829 2095 c-19 -13 -44 -30 -56 -36 -35 -18 -29 -39 10 -39 19 0 56
-7 83 -15 27 -8 76 -17 109 -20 33 -4 70 -8 83 -11 67 -14 -40 111 -114 134
-59 17 -77 15 -115 -13z m165 -32 c21 -16 46 -38 54 -51 l15 -23 -59 6 c-87 9
-185 35 -191 53 -4 8 4 22 18 34 34 27 111 18 163 -19z"/>
<path d="M1263 2053 c9 -2 23 -2 30 0 6 3 -1 5 -18 5 -16 0 -22 -2 -12 -5z"/>
<path d="M1820 1925 c14 -8 30 -14 35 -14 6 0 -1 6 -15 14 -14 8 -29 14 -35
14 -5 0 1 -6 15 -14z"/>
<path d="M336 3175 c-20 -31 -20 -35 3 -35 19 0 31 18 31 46 0 22 -16 17 -34
-11z"/>
<path d="M16 2134 c-10 -27 -7 -33 25 -49 24 -13 29 -20 23 -38 -4 -12 -11
-25 -17 -28 -5 -4 -1 -9 9 -12 10 -2 2 -5 -18 -6 l-38 -1 0 -50 c0 -54 14 -65
32 -25 12 26 34 36 24 10 -5 -14 21 -21 62 -16 6 1 12 -3 12 -9 0 -5 7 -10 15
-10 22 0 8 59 -21 91 -13 14 -24 32 -24 40 0 8 -9 25 -21 38 -11 12 -18 28
-15 36 5 14 -18 45 -34 45 -4 0 -11 -7 -14 -16z"/>
<path d="M5 2080 c-3 -5 1 -10 10 -10 9 0 13 5 10 10 -3 6 -8 10 -10 10 -2 0
-7 -4 -10 -10z"/>
<path d="M16 1791 c-15 -16 -17 -51 -15 -348 1 -304 2 -331 19 -345 10 -9 28
-14 42 -11 18 4 27 -2 38 -24 8 -15 23 -40 34 -55 14 -21 17 -36 12 -67 -5
-30 -2 -48 10 -67 17 -26 108 -84 132 -84 8 0 12 23 12 81 0 65 4 89 22 120
12 22 26 39 32 39 5 0 6 3 3 7 -4 3 -3 11 2 17 5 6 2 49 -6 101 -25 156 -25
157 -63 182 -19 12 -44 30 -55 39 -26 24 -56 29 -113 18 l-33 -6 7 63 c3 35
10 68 15 73 11 12 49 15 49 4 0 -4 9 -8 21 -8 16 0 19 4 14 20 -4 11 -2 20 4
20 6 0 11 20 11 45 0 25 -4 45 -10 45 -5 0 -10 6 -10 13 0 7 -18 23 -39 35
-30 17 -38 27 -34 42 4 14 0 20 -11 20 -10 0 -15 4 -12 9 23 36 -47 56 -78 22z"/>
<path d="M389 1506 c9 -11 9 -20 2 -34 -13 -25 -5 -32 33 -31 30 1 30 1 6 9
-23 7 -23 10 -2 14 18 3 32 19 32 37 0 16 -7 19 -41 19 -35 0 -40 -2 -30 -14z"/>
<path d="M192 1482 c-18 -12 -5 -39 21 -46 12 -3 23 -3 26 -1 2 3 -1 5 -7 5
-7 0 -12 11 -12 25 0 26 -7 30 -28 17z"/>
<path d="M340 1377 c0 -13 3 -17 8 -11 4 6 14 13 22 16 10 3 8 6 -8 10 -18 5
-22 2 -22 -15z"/>
<path d="M477 1043 c-13 -12 -7 -51 8 -57 23 -8 45 4 45 25 0 13 -7 19 -22 20
-22 0 -22 1 -3 9 20 8 20 9 -1 9 -11 1 -24 -2 -27 -6z"/>
</g>
</svg>
