<?xml version="1.0" encoding="UTF-8" ?>
<!DOCTYPE svg PUBLIC "-//W3C//DTD SVG 1.1//EN" "http://www.w3.org/Graphics/SVG/1.1/DTD/svg11.dtd">
<svg width="550pt" height="370pt" viewBox="0 0 550 370" version="1.1" xmlns="http://www.w3.org/2000/svg">
<g id="#ffffffff">
</g>
<g id="#010f3bff">
<path fill="#010f3b" opacity="1.00" d=" M 147.36 110.43 C 190.07 85.97 232.71 61.37 275.46 37.00 C 317.91 61.78 360.50 86.34 403.00 111.04 C 402.90 160.22 402.82 209.40 402.63 258.58 C 360.03 283.07 317.33 307.41 274.78 332.02 C 232.13 307.43 189.60 282.63 147.00 257.95 C 147.11 208.78 147.18 159.60 147.36 110.43 M 154.30 114.50 C 154.24 160.98 154.07 207.46 154.00 253.93 C 194.22 277.27 234.44 300.61 274.68 323.92 C 315.02 300.79 355.35 277.62 395.70 254.50 C 395.76 208.03 395.93 161.55 396.00 115.07 C 355.78 91.73 315.55 68.39 275.32 45.07 C 234.98 68.22 194.65 91.37 154.30 114.50 Z" />
<path fill="#010f3b" opacity="1.00" d=" M 253.00 87.66 C 256.42 88.11 259.25 90.21 262.29 91.68 C 266.00 93.70 269.88 95.40 273.48 97.61 C 274.71 98.23 274.46 99.84 274.58 100.98 C 274.57 107.36 274.58 113.74 274.54 120.12 C 270.91 120.04 268.03 117.62 264.91 116.12 C 261.10 113.91 256.95 112.26 253.37 109.70 C 253.21 109.00 252.89 107.59 252.73 106.88 C 233.91 118.11 214.94 129.10 196.05 140.22 C 196.22 162.89 196.44 185.56 196.64 208.24 C 203.15 211.29 209.78 214.06 216.26 217.17 C 214.68 219.47 211.92 220.35 209.59 221.65 C 204.97 223.97 200.51 226.61 195.83 228.80 C 193.92 229.91 192.04 228.37 190.34 227.62 C 184.33 224.27 178.05 221.40 172.19 217.79 C 177.45 214.00 183.89 212.25 189.63 209.29 C 189.43 184.94 189.19 160.59 188.99 136.25 C 210.33 123.75 231.65 111.21 252.98 98.71 C 252.99 95.03 253.00 91.34 253.00 87.66 Z" />
<path fill="#010f3b" opacity="1.00" d=" M 286.58 93.59 C 290.81 91.57 294.75 88.88 299.26 87.51 C 299.37 91.74 299.33 95.97 299.32 100.21 C 300.57 100.75 301.81 101.34 303.01 102.00 C 322.38 112.92 341.76 123.84 361.14 134.74 C 361.36 159.43 361.57 184.11 361.80 208.79 C 367.94 211.60 374.16 214.26 380.26 217.17 C 379.48 218.09 378.70 219.03 377.59 219.56 C 372.53 222.23 367.44 224.84 362.41 227.56 C 360.54 228.48 358.33 230.01 356.30 228.59 C 349.58 225.01 342.68 221.72 336.17 217.76 C 341.85 213.85 348.64 211.91 354.77 208.77 C 354.59 185.47 354.35 162.17 354.17 138.87 C 336.02 128.57 317.78 118.43 299.66 108.09 C 298.36 111.36 294.54 112.07 291.84 113.80 C 287.24 115.90 283.14 119.25 278.11 120.27 C 278.10 112.96 277.61 105.55 278.30 98.29 C 280.71 96.18 283.84 95.17 286.58 93.59 Z" />
</g>
<g id="#010f3cff">
<path fill="#010f3c" opacity="1.00" d=" M 269.84 76.09 C 272.64 74.85 275.75 72.90 278.85 74.40 C 285.37 77.29 291.93 80.13 298.34 83.26 C 295.52 86.34 291.33 87.51 287.83 89.62 C 283.87 91.41 280.30 94.28 276.04 95.23 C 268.69 91.88 261.45 88.07 254.53 83.90 C 254.75 83.60 255.20 82.99 255.42 82.68 C 260.12 80.26 265.07 78.37 269.84 76.09 Z" />
<path fill="#010f3c" opacity="1.00" d=" M 171.00 221.66 C 174.43 222.11 177.27 224.22 180.31 225.69 C 184.01 227.72 187.91 229.40 191.50 231.64 C 192.73 232.30 192.48 233.87 192.58 235.03 C 192.56 241.41 192.60 247.79 192.52 254.16 C 189.46 254.04 186.94 252.26 184.33 250.88 C 180.79 248.96 177.21 247.12 173.66 245.22 C 172.46 244.51 170.72 243.87 171.02 242.12 C 170.91 235.30 171.04 228.48 171.00 221.66 Z" />
<path fill="#010f3c" opacity="1.00" d=" M 200.54 229.65 C 206.17 227.05 211.37 223.49 217.27 221.51 C 217.40 228.56 217.30 235.61 217.34 242.65 C 236.94 253.83 256.66 264.79 276.28 275.93 C 295.84 264.48 315.37 252.95 334.96 241.55 C 335.04 234.91 334.97 228.28 335.00 221.64 C 338.42 222.11 341.25 224.21 344.29 225.68 C 347.99 227.70 351.89 229.39 355.48 231.61 C 356.71 232.25 356.47 233.85 356.58 235.00 C 356.56 241.39 356.61 247.79 356.51 254.18 C 350.49 253.19 345.69 248.90 340.13 246.59 C 318.88 259.05 297.63 271.51 276.39 283.99 C 254.57 271.75 232.82 259.40 211.00 247.19 C 205.98 249.41 201.55 253.20 196.07 254.19 C 195.96 247.45 195.98 240.71 196.00 233.97 C 195.78 231.37 198.82 230.76 200.54 229.65 Z" />
<path fill="#010f3c" opacity="1.00" d=" M 363.82 230.02 C 369.68 227.27 375.14 223.67 381.24 221.47 C 381.20 228.89 381.74 236.39 381.00 243.77 C 377.50 246.14 373.59 247.80 369.92 249.87 C 366.70 251.44 363.73 253.76 360.09 254.23 C 359.94 247.47 359.98 240.71 360.01 233.95 C 359.73 231.66 362.27 230.96 363.82 230.02 Z" />
</g>
</svg>
