<?xml version="1.0" encoding="UTF-8"?>
<svg version="1.1" xmlns="http://www.w3.org/2000/svg" width="1200" height="1200">
<path d="M0 0 C396 0 792 0 1200 0 C1200 396 1200 792 1200 1200 C804 1200 408 1200 0 1200 C0 804 0 408 0 0 Z " fill="#EDEDED" transform="translate(0,0)"/>
<path d="M0 0 C1.96935768 -0.01270432 1.96935768 -0.01270432 3.97850037 -0.02566528 C7.56960084 -0.04783278 11.16047152 -0.05081429 14.75163102 -0.04891777 C17.75586618 -0.04879782 20.76005309 -0.05737225 23.76427478 -0.06569529 C30.85655465 -0.0849132 37.94871685 -0.0878195 45.04101562 -0.08105469 C52.34157906 -0.07441889 59.64163662 -0.09726291 66.94209749 -0.13436842 C73.22344066 -0.16512801 79.50462165 -0.17641859 85.78603858 -0.1725316 C89.53167098 -0.17047008 93.27690983 -0.17584968 97.02247047 -0.20042419 C101.20411945 -0.22695451 105.38471009 -0.21291601 109.56640625 -0.1953125 C111.41128128 -0.21520737 111.41128128 -0.21520737 113.29342651 -0.23550415 C121.61271178 -0.15427845 127.71436652 1.31933476 133.81895161 7.1914444 C135.35255026 8.8576993 136.67406677 10.56950498 137.97729492 12.41992188 C138.90541992 13.71929687 138.90541992 13.71929687 139.85229492 15.04492188 C142.15765524 21.96100284 142.0787119 29.78461942 138.97729492 36.41992188 C140.83354492 36.23429687 140.83354492 36.23429687 142.72729492 36.04492188 C149.94209681 36.05631967 156.47335015 39.48248314 161.93432617 44.06054688 C163.50778919 45.76546376 164.75158249 47.45147642 165.97729492 49.41992188 C166.3872168 50.07605469 166.79713867 50.7321875 167.21948242 51.40820312 C170.84806806 58.25246638 171.42798523 66.3549403 169.29370117 73.80664062 C168.47729492 75.73242187 168.47729492 75.73242187 166.97729492 78.41992188 C167.78811523 78.48308594 168.59893555 78.54625 169.43432617 78.61132812 C177.99967813 79.55860221 184.48901537 81.59286826 190.97729492 87.41992188 C197.39873857 95.48088305 199.85742415 102.20147235 198.97729492 112.41992188 C198.03008662 116.26105495 196.74632902 119.88185369 194.97729492 123.41992188 C196.09104492 123.44054687 197.20479492 123.46117187 198.35229492 123.48242188 C204.91301523 124.30979513 210.28660933 128.45954053 214.65307617 133.26367188 C220.74523734 141.45843735 220.77081773 149.65273374 219.97729492 159.41992188 C219.11349057 162.54362518 217.8957361 164.82812055 215.97729492 167.41992188 C215.29666992 168.45117188 214.61604492 169.48242188 213.91479492 170.54492188 C209.55998983 175.51212143 202.41221947 179.13293696 195.97729492 180.41992188 C196.30213867 181.22042969 196.30213867 181.22042969 196.63354492 182.03710938 C199.7447803 190.36254478 200.15782773 197.95486175 196.93432617 206.33007812 C193.33847786 214.18223669 187.84773345 218.79344335 179.97729492 222.41992188 C175.65896831 223.47728029 171.40652641 224.0748784 166.97729492 224.41992188 C167.47229492 225.30679688 167.96729492 226.19367188 168.47729492 227.10742188 C171.24270307 233.73371386 171.13165708 240.96502237 168.87573242 247.71679688 C164.69686488 256.70024474 159.45006643 261.94266593 150.33276367 265.74023438 C146.45991086 266.85777399 142.9837481 266.67429985 138.97729492 266.41992188 C139.29956055 266.94070313 139.62182617 267.46148437 139.95385742 267.99804688 C142.32587925 273.61122831 141.83037062 281.03461515 140.36010742 286.86914062 C137.48591185 293.3424395 131.91882654 297.45890079 126.16479492 301.29492188 C121.5198683 302.93430774 116.87263366 303.16731543 111.97729492 303.41992188 C112.0469043 304.33773438 112.11651367 305.25554687 112.18823242 306.20117188 C112.50705663 313.42785401 112.6303462 318.38361509 107.62182617 323.87304688 C107.07913086 324.38351562 106.53643555 324.89398437 105.97729492 325.41992188 C105.15229492 326.20367188 104.32729492 326.98742187 103.47729492 327.79492188 C98.23184639 331.20446342 93.11258166 331.71812486 86.98754883 331.71044922 C86.2094838 331.71716644 85.43141876 331.72388367 84.629776 331.73080444 C82.07107058 331.74972057 79.51262831 331.75370528 76.95385742 331.75585938 C75.16555679 331.76229138 73.3772572 331.76902004 71.58895874 331.77603149 C67.84500693 331.78798802 64.10114728 331.79171396 60.35717773 331.79052734 C55.57345309 331.79032417 50.79032258 331.81763231 46.00673866 331.85207176 C42.31427323 331.87437151 38.62195015 331.87836396 34.92942429 331.87730789 C33.16646654 331.87965898 31.40350457 331.88845468 29.64061356 331.90397263 C27.16860238 331.92369699 24.6978643 331.91777031 22.22583008 331.90576172 C21.50660873 331.91700073 20.78738739 331.92823975 20.04637146 331.93981934 C13.80718692 331.86328409 8.61681382 329.78937417 3.95385742 325.60351562 C3.5078418 325.02730469 3.06182617 324.45109375 2.60229492 323.85742188 C2.14081055 323.27863281 1.67932617 322.69984375 1.20385742 322.10351562 C-1.9432851 317.78371172 -2.24565047 315.57044597 -2.14770508 310.23242188 C-2.1296582 308.96011719 -2.11161133 307.6878125 -2.09301758 306.37695312 C-2.06981445 305.40113281 -2.04661133 304.4253125 -2.02270508 303.41992188 C-2.71235352 303.40574219 -3.40200195 303.3915625 -4.11254883 303.37695312 C-13.42558671 302.90427493 -19.62113603 300.33408172 -25.96020508 293.41992188 C-30.30242625 288.32833393 -31.3011807 284.01359937 -31.27270508 277.35742188 C-31.28043945 275.54564453 -31.28043945 275.54564453 -31.28833008 273.69726562 C-31.04148257 270.65160297 -30.62526483 268.97002688 -29.02270508 266.41992188 C-30.26020508 266.54367187 -31.49770508 266.66742188 -32.77270508 266.79492188 C-39.97271514 266.78354745 -46.69685703 263.39362131 -52.01489258 258.63867188 C-53.49316003 256.96183118 -54.78360259 255.2785756 -56.02270508 253.41992188 C-56.62083008 252.53304687 -57.21895508 251.64617187 -57.83520508 250.73242188 C-61.15260674 244.27221864 -61.1216697 235.71994043 -59.35083008 228.79101562 C-58.65888491 226.96649983 -57.85357094 225.18551184 -57.02270508 223.41992188 C-57.57958008 223.45472656 -58.13645508 223.48953125 -58.71020508 223.52539062 C-66.5632695 223.80396217 -72.97076502 221.89931576 -79.28442383 217.13867188 C-85.67903305 210.8159122 -89.09792864 203.58352031 -89.27270508 194.66992188 C-89.24164382 189.4982223 -87.95500757 185.1816673 -86.02270508 180.41992188 C-87.15708008 180.04867187 -88.29145508 179.67742187 -89.46020508 179.29492188 C-98.47338224 175.84917627 -104.45800998 170.97872518 -109.02270508 162.41992188 C-111.26595545 155.69017077 -111.44518002 145.22805553 -108.33520508 138.79492188 C-107.60336873 137.6441723 -106.83406 136.516057 -106.02270508 135.41992188 C-105.34208008 134.38867188 -104.66145508 133.35742188 -103.96020508 132.29492188 C-100.2982906 128.14247056 -95.09465895 125.47493767 -90.02270508 123.41992188 C-87.17895508 123.25585938 -87.17895508 123.25585938 -85.02270508 123.41992188 C-85.49708008 122.34742188 -85.97145508 121.27492188 -86.46020508 120.16992188 C-89.55027404 113.183679 -90.36320654 105.55934136 -87.83520508 98.23242188 C-84.05073705 89.62664526 -78.66036742 84.39991573 -70.02270508 80.41992188 C-65.70437847 79.36256346 -61.45193657 78.76496535 -57.02270508 78.41992188 C-57.51770508 77.53304687 -58.01270508 76.64617187 -58.52270508 75.73242188 C-61.3518186 69.11768503 -60.89689071 61.38243987 -58.89770508 54.60742188 C-54.28756588 46.77018523 -49.06511042 39.75811179 -40.04614258 36.76367188 C-37.75133248 36.37381997 -35.59929354 36.32320734 -33.27270508 36.35742188 C-32.47348633 36.36644531 -31.67426758 36.37546875 -30.85083008 36.38476562 C-30.24754883 36.39636719 -29.64426758 36.40796875 -29.02270508 36.41992188 C-29.3449707 35.89914062 -29.66723633 35.37835938 -29.99926758 34.84179688 C-32.37128941 29.22861544 -31.87578078 21.8052286 -30.40551758 15.97070312 C-24.67087046 3.05505984 -12.88948563 -0.03056172 0 0 Z " fill="#E9ECEC" transform="translate(545.022705078125,232.580078125)"/>
<path d="M0 0 C1.96935768 -0.01270432 1.96935768 -0.01270432 3.97850037 -0.02566528 C7.56960084 -0.04783278 11.16047152 -0.05081429 14.75163102 -0.04891777 C17.75586618 -0.04879782 20.76005309 -0.05737225 23.76427478 -0.06569529 C30.85655465 -0.0849132 37.94871685 -0.0878195 45.04101562 -0.08105469 C52.34157906 -0.07441889 59.64163662 -0.09726291 66.94209749 -0.13436842 C73.22344066 -0.16512801 79.50462165 -0.17641859 85.78603858 -0.1725316 C89.53167098 -0.17047008 93.27690983 -0.17584968 97.02247047 -0.20042419 C101.20411945 -0.22695451 105.38471009 -0.21291601 109.56640625 -0.1953125 C111.41128128 -0.21520737 111.41128128 -0.21520737 113.29342651 -0.23550415 C121.61271178 -0.15427845 127.71436652 1.31933476 133.81895161 7.1914444 C135.35255026 8.8576993 136.67406677 10.56950498 137.97729492 12.41992188 C138.90541992 13.71929687 138.90541992 13.71929687 139.85229492 15.04492188 C142.15765524 21.96100284 142.0787119 29.78461942 138.97729492 36.41992188 C140.83354492 36.23429687 140.83354492 36.23429687 142.72729492 36.04492188 C149.94209681 36.05631967 156.47335015 39.48248314 161.93432617 44.06054688 C163.50778919 45.76546376 164.75158249 47.45147642 165.97729492 49.41992188 C166.3872168 50.07605469 166.79713867 50.7321875 167.21948242 51.40820312 C170.84806806 58.25246638 171.42798523 66.3549403 169.29370117 73.80664062 C168.47729492 75.73242187 168.47729492 75.73242187 166.97729492 78.41992188 C167.78811523 78.48308594 168.59893555 78.54625 169.43432617 78.61132812 C177.99967813 79.55860221 184.48901537 81.59286826 190.97729492 87.41992188 C197.39873857 95.48088305 199.85742415 102.20147235 198.97729492 112.41992188 C198.03008662 116.26105495 196.74632902 119.88185369 194.97729492 123.41992188 C196.09104492 123.44054687 197.20479492 123.46117187 198.35229492 123.48242188 C204.91301523 124.30979513 210.28660933 128.45954053 214.65307617 133.26367188 C220.74523734 141.45843735 220.77081773 149.65273374 219.97729492 159.41992188 C219.11349057 162.54362518 217.8957361 164.82812055 215.97729492 167.41992188 C215.29666992 168.45117188 214.61604492 169.48242188 213.91479492 170.54492188 C209.55998983 175.51212143 202.41221947 179.13293696 195.97729492 180.41992188 C196.30213867 181.22042969 196.30213867 181.22042969 196.63354492 182.03710938 C199.7447803 190.36254478 200.15782773 197.95486175 196.93432617 206.33007812 C193.33847786 214.18223669 187.84773345 218.79344335 179.97729492 222.41992188 C175.65896831 223.47728029 171.40652641 224.0748784 166.97729492 224.41992188 C167.47229492 225.30679688 167.96729492 226.19367188 168.47729492 227.10742188 C171.24270307 233.73371386 171.13165708 240.96502237 168.87573242 247.71679688 C164.69686488 256.70024474 159.45006643 261.94266593 150.33276367 265.74023438 C146.45991086 266.85777399 142.9837481 266.67429985 138.97729492 266.41992188 C139.29956055 266.94070313 139.62182617 267.46148437 139.95385742 267.99804688 C142.32587925 273.61122831 141.83037062 281.03461515 140.36010742 286.86914062 C137.48591185 293.3424395 131.91882654 297.45890079 126.16479492 301.29492188 C121.5198683 302.93430774 116.87263366 303.16731543 111.97729492 303.41992188 C112.0469043 304.33773438 112.11651367 305.25554687 112.18823242 306.20117188 C112.50705663 313.42785401 112.6303462 318.38361509 107.62182617 323.87304688 C107.07913086 324.38351562 106.53643555 324.89398437 105.97729492 325.41992188 C105.15229492 326.20367188 104.32729492 326.98742187 103.47729492 327.79492188 C98.23184639 331.20446342 93.11258166 331.71812486 86.98754883 331.71044922 C86.2094838 331.71716644 85.43141876 331.72388367 84.629776 331.73080444 C82.07107058 331.74972057 79.51262831 331.75370528 76.95385742 331.75585938 C75.16555679 331.76229138 73.3772572 331.76902004 71.58895874 331.77603149 C67.84500693 331.78798802 64.10114728 331.79171396 60.35717773 331.79052734 C55.57345309 331.79032417 50.79032258 331.81763231 46.00673866 331.85207176 C42.31427323 331.87437151 38.62195015 331.87836396 34.92942429 331.87730789 C33.16646654 331.87965898 31.40350457 331.88845468 29.64061356 331.90397263 C27.16860238 331.92369699 24.6978643 331.91777031 22.22583008 331.90576172 C21.50660873 331.91700073 20.78738739 331.92823975 20.04637146 331.93981934 C13.80718692 331.86328409 8.61681382 329.78937417 3.95385742 325.60351562 C3.5078418 325.02730469 3.06182617 324.45109375 2.60229492 323.85742188 C2.14081055 323.27863281 1.67932617 322.69984375 1.20385742 322.10351562 C-1.9432851 317.78371172 -2.24565047 315.57044597 -2.14770508 310.23242188 C-2.1296582 308.96011719 -2.11161133 307.6878125 -2.09301758 306.37695312 C-2.06981445 305.40113281 -2.04661133 304.4253125 -2.02270508 303.41992188 C-2.71235352 303.40574219 -3.40200195 303.3915625 -4.11254883 303.37695312 C-13.42558671 302.90427493 -19.62113603 300.33408172 -25.96020508 293.41992188 C-30.30242625 288.32833393 -31.3011807 284.01359937 -31.27270508 277.35742188 C-31.28043945 275.54564453 -31.28043945 275.54564453 -31.28833008 273.69726562 C-31.04148257 270.65160297 -30.62526483 268.97002688 -29.02270508 266.41992188 C-30.26020508 266.54367187 -31.49770508 266.66742188 -32.77270508 266.79492188 C-39.97271514 266.78354745 -46.69685703 263.39362131 -52.01489258 258.63867188 C-53.49316003 256.96183118 -54.78360259 255.2785756 -56.02270508 253.41992188 C-56.62083008 252.53304687 -57.21895508 251.64617187 -57.83520508 250.73242188 C-61.15260674 244.27221864 -61.1216697 235.71994043 -59.35083008 228.79101562 C-58.65888491 226.96649983 -57.85357094 225.18551184 -57.02270508 223.41992188 C-57.57958008 223.45472656 -58.13645508 223.48953125 -58.71020508 223.52539062 C-66.5632695 223.80396217 -72.97076502 221.89931576 -79.28442383 217.13867188 C-85.67903305 210.8159122 -89.09792864 203.58352031 -89.27270508 194.66992188 C-89.24164382 189.4982223 -87.95500757 185.1816673 -86.02270508 180.41992188 C-87.15708008 180.04867187 -88.29145508 179.67742187 -89.46020508 179.29492188 C-98.47338224 175.84917627 -104.45800998 170.97872518 -109.02270508 162.41992188 C-111.26595545 155.69017077 -111.44518002 145.22805553 -108.33520508 138.79492188 C-107.60336873 137.6441723 -106.83406 136.516057 -106.02270508 135.41992188 C-105.34208008 134.38867188 -104.66145508 133.35742188 -103.96020508 132.29492188 C-100.2982906 128.14247056 -95.09465895 125.47493767 -90.02270508 123.41992188 C-87.17895508 123.25585938 -87.17895508 123.25585938 -85.02270508 123.41992188 C-85.49708008 122.34742188 -85.97145508 121.27492188 -86.46020508 120.16992188 C-89.55027404 113.183679 -90.36320654 105.55934136 -87.83520508 98.23242188 C-84.05073705 89.62664526 -78.66036742 84.39991573 -70.02270508 80.41992188 C-65.70437847 79.36256346 -61.45193657 78.76496535 -57.02270508 78.41992188 C-57.51770508 77.53304687 -58.01270508 76.64617187 -58.52270508 75.73242188 C-61.3518186 69.11768503 -60.89689071 61.38243987 -58.89770508 54.60742188 C-54.28756588 46.77018523 -49.06511042 39.75811179 -40.04614258 36.76367188 C-37.75133248 36.37381997 -35.59929354 36.32320734 -33.27270508 36.35742188 C-32.47348633 36.36644531 -31.67426758 36.37546875 -30.85083008 36.38476562 C-30.24754883 36.39636719 -29.64426758 36.40796875 -29.02270508 36.41992188 C-29.3449707 35.89914062 -29.66723633 35.37835938 -29.99926758 34.84179688 C-32.37128941 29.22861544 -31.87578078 21.8052286 -30.40551758 15.97070312 C-24.67087046 3.05505984 -12.88948563 -0.03056172 0 0 Z M-16.02270508 19.41992188 C-17.55485396 22.48421963 -17.25209056 25.03648607 -17.02270508 28.41992188 C-15.33979634 32.12232109 -13.52073238 34.36334223 -10.02270508 36.41992188 C-7.47417788 36.7076562 -5.17003652 36.8272733 -2.6237793 36.8046875 C-1.51581497 36.81274666 -1.51581497 36.81274666 -0.38546753 36.82096863 C1.21431999 36.83073482 2.8141604 36.83369427 4.41397476 36.83061218 C6.94387384 36.82613423 9.47307346 36.84013132 12.00289917 36.85900879 C18.28269983 36.90203351 24.56248497 36.91306208 30.84240723 36.92523193 C36.15424328 36.93673866 41.46575954 36.96022914 46.77746201 36.99992371 C49.27374239 37.01354168 51.76959641 37.0093154 54.26589966 37.0045166 C55.78965814 37.01385234 57.31341182 37.02401992 58.8371582 37.03515625 C59.8829303 37.02593391 59.8829303 37.02593391 60.9498291 37.01652527 C62.87844849 37.04138184 62.87844849 37.04138184 65.97729492 37.41992188 C68.29061978 40.88990917 68.31687055 42.34501436 67.97729492 46.41992188 C65.97729492 49.41992188 65.97729492 49.41992188 64.17339802 49.79350948 C63.4395246 49.79292317 62.70565119 49.79233686 61.94953918 49.79173279 C61.10707642 49.7984903 60.26461365 49.8052478 59.3966217 49.81221008 C58.00726662 49.80063118 58.00726662 49.80063118 56.58984375 49.78881836 C55.1286058 49.79446808 55.1286058 49.79446808 53.6378479 49.80023193 C51.51690955 49.80668026 49.39594231 49.80631959 47.27500343 49.80004692 C43.91643009 49.79096724 40.55841875 49.80112638 37.19987488 49.81666565 C27.64904713 49.85684398 18.09826143 49.85797124 8.54736328 49.85571289 C2.70942811 49.85566175 -3.12820605 49.87485534 -8.96605873 49.90504646 C-12.27153087 49.91587107 -15.57642801 49.90373824 -18.88188171 49.89122009 C-20.91735398 49.90012709 -22.95282158 49.91020237 -24.98828125 49.92163086 C-25.90439682 49.91188736 -26.82051239 49.90214386 -27.76438904 49.8921051 C-33.69709829 49.95843951 -37.1549039 50.97529557 -42.02270508 54.41992188 C-45.49583198 58.33832146 -46.63586885 61.35166125 -46.34301758 66.46679688 C-45.60513474 70.96608246 -43.79994651 73.71850887 -40.46020508 76.73242188 C-36.26908021 79.63396986 -33.06169593 79.56864146 -28.09301758 79.59570312 C-26.47711913 79.61890086 -24.86123366 79.64301818 -23.24536133 79.66796875 C-20.69530542 79.70309281 -18.14572742 79.73243228 -15.59545898 79.74584961 C-13.13572215 79.76132714 -10.67738462 79.80153181 -8.21801758 79.84570312 C-7.45748077 79.84379471 -6.69694397 79.84188629 -5.9133606 79.83992004 C-2.40302814 79.9209978 -0.37221026 80.16464968 2.49731445 82.26049805 C3.97729492 84.41992188 3.97729492 84.41992188 3.85229492 87.54492188 C2.97729492 90.41992188 2.97729492 90.41992188 0.97729492 92.41992188 C-1.69049072 92.67147827 -1.69049072 92.67147827 -5.12133789 92.67529297 C-6.40316956 92.68225189 -7.68500122 92.68921082 -9.00567627 92.69638062 C-9.69301094 92.69569958 -10.38034561 92.69501854 -11.08850861 92.69431686 C-13.24122363 92.69335248 -15.39343807 92.70628431 -17.54608154 92.72329712 C-23.66699282 92.76958547 -29.78785536 92.79415933 -35.90893555 92.80078125 C-39.65268458 92.80580815 -43.39591507 92.83012198 -47.13948822 92.86610794 C-48.56353384 92.87588377 -49.98765102 92.87824996 -51.41172028 92.87293625 C-53.40999556 92.86583295 -55.40831112 92.8852877 -57.40649414 92.90576172 C-58.54185608 92.90861176 -59.67721802 92.91146179 -60.84698486 92.91439819 C-65.68990536 93.6853134 -68.72362525 96.32595991 -72.39770508 99.41992188 C-75.0154556 104.25269207 -74.86446366 109.05733916 -74.02270508 114.41992188 C-72.45229643 117.78600272 -70.25769905 119.73108439 -66.99232483 121.55239868 C-62.56780101 122.84494701 -58.2827435 122.69466726 -53.69628906 122.67529297 C-52.65835205 122.67891342 -51.62041504 122.68253387 -50.55102539 122.68626404 C-48.30080989 122.69314975 -46.05057773 122.69566502 -43.8003521 122.69431686 C-40.24081482 122.69335179 -36.68157962 122.7062907 -33.12208557 122.72329712 C-23.00312617 122.76958433 -12.88419835 122.79419018 -2.76513672 122.80078125 C3.42638478 122.80578664 9.61758949 122.82998381 15.80900383 122.86610794 C18.16972899 122.87592529 20.53049761 122.87822741 22.89123726 122.87293625 C26.18792914 122.86589184 29.48367138 122.88309337 32.78027344 122.90576172 C34.24771248 122.89350304 34.24771248 122.89350304 35.74479675 122.8809967 C42.33673445 122.96185649 42.33673445 122.96185649 45.59507751 125.29190063 C47.30105985 127.91838082 47.3720731 129.34065206 46.97729492 132.41992188 C46.64729492 133.40992188 46.31729492 134.39992188 45.97729492 135.41992188 C45.30953033 135.42046664 44.64176575 135.42101141 43.95376587 135.42157269 C27.68599973 135.43655698 11.41856022 135.47907012 -4.8490448 135.55201244 C-12.71604496 135.58662732 -20.58287053 135.61201335 -28.44995117 135.61547852 C-35.30900456 135.61852331 -42.16774675 135.63908265 -49.02667999 135.68044645 C-52.65664592 135.70173187 -56.28616992 135.71440034 -59.91619873 135.70607567 C-63.97426981 135.6970982 -68.03116651 135.72723293 -72.08911133 135.76049805 C-73.28529587 135.75187241 -74.48148041 135.74324677 -75.71391296 135.73435974 C-82.76739643 135.83122012 -87.59349896 136.7425711 -93.02270508 141.41992188 C-96.43265069 145.14954989 -96.60014858 149.03559187 -96.43286133 153.91601562 C-95.77643169 157.92336227 -94.1499657 160.82876308 -91.02270508 163.41992188 C-85.94733399 165.97220819 -81.83559522 166.85565363 -76.13310242 166.80519104 C-74.98693655 166.81304458 -74.98693655 166.81304458 -73.81761581 166.82105678 C-71.2734292 166.83495541 -68.72975455 166.82773318 -66.18554688 166.82055664 C-64.35526583 166.82630218 -62.52498857 166.83338619 -60.69471741 166.84170532 C-56.76220373 166.85679285 -52.8298256 166.86259493 -48.89728355 166.86117744 C-42.68338354 166.85914242 -36.46966583 166.87871739 -30.2558136 166.90135193 C-18.19566895 166.94229467 -6.13553877 166.96093251 5.92465973 166.9775238 C21.29437042 166.99989495 36.66403911 167.03330972 52.03368062 167.08472294 C58.21583427 167.10468842 64.39789216 167.11422738 70.58007681 167.11567509 C74.41623131 167.11841675 78.25233247 167.12922692 82.08846474 167.14218521 C83.87272653 167.14648045 85.65700035 167.14731449 87.44126511 167.14451027 C89.86850463 167.14113182 92.29540447 167.14984002 94.72261047 167.16163635 C95.43572634 167.15765526 96.1488422 167.15367417 96.88356763 167.14957243 C101.74913676 167.19176372 101.74913676 167.19176372 103.97729492 169.41992188 C104.35229492 172.85742188 104.35229492 172.85742188 103.97729492 176.41992188 C101.68575099 178.8430024 100.26530716 179.38422424 96.9406147 179.7963028 C95.14374623 179.79737156 95.14374623 179.79737156 93.31057739 179.79846191 C92.6416905 179.80299204 91.97280361 179.80752217 91.28364742 179.81218958 C89.04347363 179.82381207 86.80389712 179.81416758 84.5637207 179.8046875 C82.95711888 179.80879274 81.35052003 179.81425333 79.743927 179.82096863 C76.28444862 179.83269732 72.82512979 179.83517664 69.36563492 179.83061218 C63.89437966 179.82380694 58.4233346 179.83966322 52.95211792 179.85900879 C41.3355216 179.89688415 29.71894352 179.90966494 18.10229492 179.91992188 C5.56832534 179.93099354 -6.96554763 179.94634652 -19.4994508 179.99063444 C-24.93708 180.00898963 -30.37446932 180.0128833 -35.81212211 180.00569916 C-39.19726411 180.00417649 -42.58228631 180.01496651 -45.96739578 180.02907753 C-47.53550515 180.03307766 -49.10363732 180.03195944 -50.67173767 180.02530479 C-52.81545748 180.01690723 -54.95835006 180.02693094 -57.10202026 180.04138184 C-58.90001981 180.0424506 -58.90001981 180.0424506 -60.73434258 180.04354095 C-65.48914097 180.58776787 -68.76777026 182.36313466 -72.39770508 185.41992188 C-74.87694741 189.99698464 -74.65271463 194.32606412 -74.02270508 199.41992188 C-72.10878592 204.15435347 -68.56901722 207.14676581 -64.02270508 209.41992188 C-61.68484173 209.54120481 -59.34352798 209.59747143 -57.00268555 209.62524414 C-56.28062927 209.63514374 -55.558573 209.64504333 -54.81463623 209.65524292 C-52.4230886 209.68688218 -50.03152109 209.71162486 -47.63989258 209.73632812 C-45.98364744 209.75689556 -44.32740757 209.77789198 -42.6711731 209.79930115 C-38.30808784 209.85454355 -33.94495504 209.90394324 -29.58178711 209.95214844 C-25.13106038 210.00234765 -20.68040285 210.05804195 -16.22973633 210.11328125 C-7.49411771 210.22088934 1.24155871 210.3223284 9.97729492 210.41992188 C10.22683498 211.85402556 10.45122134 213.29252259 10.66479492 214.73242188 C10.79241211 215.53292969 10.9200293 216.3334375 11.05151367 217.15820312 C10.97729492 219.41992188 10.97729492 219.41992188 9.75213623 221.18884277 C7.61281744 222.67273355 6.47954448 222.79728822 3.89233398 222.8046875 C3.07428284 222.81479858 2.25623169 222.82490967 1.41339111 222.83532715 C0.53213562 222.83230591 -0.34911987 222.82928467 -1.25708008 222.82617188 C-2.16846741 222.83700806 -3.07985474 222.84784424 -4.01885986 222.85900879 C-6.93687999 222.89331422 -9.85450974 222.90886446 -12.77270508 222.91992188 C-16.60120337 222.93453446 -20.42883575 222.96834527 -24.25708008 223.01367188 C-25.13023865 223.01065063 -26.00339722 223.00762939 -26.90301514 223.0045166 C-32.36081885 223.07095091 -36.19232357 223.82073877 -41.02270508 226.41992188 C-45.21557356 230.94380629 -46.44444466 233.97926168 -46.36645508 240.03320312 C-45.79908862 243.97253163 -43.96080346 246.78246612 -41.02270508 249.41992188 C-35.75563912 252.72134265 -31.4060404 252.84694037 -25.38989258 252.82617188 C-24.47563507 252.83700806 -23.56137756 252.84784424 -22.61941528 252.85900879 C-18.72606357 252.90473224 -14.83278118 252.91637232 -10.93920898 252.93115234 C-8.08919519 252.94683526 -5.23973908 252.9798234 -2.38989258 253.01367188 C-1.51066132 253.01065063 -0.63143005 253.00762939 0.27444458 253.0045166 C6.32547572 253.07902006 6.32547572 253.07902006 9.53540039 254.7578125 C10.97729492 256.41992188 10.97729492 256.41992188 11.41479492 259.41992188 C10.92993021 262.74470845 10.55783926 263.42375516 7.97729492 265.41992188 C6.07958984 265.77294922 6.07958984 265.77294922 3.95776367 265.75585938 C3.18239258 265.76875 2.40702148 265.78164063 1.6081543 265.79492188 C-0.00905207 265.79492188 -1.62627842 265.78722286 -3.2434082 265.77148438 C-7.35833571 265.85317028 -10.20903004 266.11029549 -13.53051758 268.67773438 C-16.63903553 272.09807858 -16.98794611 273.82885396 -17.19458008 278.27148438 C-16.88009718 282.20252056 -15.11744801 284.29352908 -12.46044922 287.02734375 C-8.79308178 289.12235265 -5.36039816 288.84142122 -1.20629883 288.82617188 C-0.35342789 288.83700806 0.49944305 288.84784424 1.37815857 288.85900879 C5.02141879 288.90485772 8.66460826 288.91637142 12.30810547 288.93115234 C14.9702304 288.94682168 17.63175565 288.97981245 20.29370117 289.01367188 C21.53126915 289.00914001 21.53126915 289.00914001 22.7938385 289.0045166 C28.54072059 289.08020936 28.54072059 289.08020936 30.69493103 290.75646973 C32.67189009 293.32093431 32.36883925 295.28756721 31.97729492 298.41992188 C30.85620117 300.08007812 30.85620117 300.08007812 28.97729492 301.41992188 C25.67183073 301.829334 22.43498591 301.85921042 19.10620117 301.91601562 C15.37461258 302.51698308 14.20990672 303.41984977 11.97729492 306.41992188 C11.22729492 309.91992188 11.22729492 309.91992188 11.97729492 313.41992188 C14.74359076 316.34374607 16.42168112 317.33818854 20.43017578 317.92785645 C21.7672924 317.95145398 23.10490731 317.95331056 24.44213867 317.9375 C25.1761087 317.94450928 25.91007874 317.95151855 26.66629028 317.95874023 C29.0828479 317.97628834 31.49822623 317.96470978 33.91479492 317.95117188 C35.59961165 317.95386773 37.28442687 317.95775093 38.96923828 317.96276855 C42.4964889 317.96865925 46.02333374 317.96011473 49.55053711 317.94140625 C54.06675009 317.91861662 58.5820122 317.93174205 63.09819031 317.95569611 C66.57612239 317.97016586 70.05382987 317.96554277 73.5317688 317.95518494 C75.19670729 317.95252089 76.86166632 317.9557761 78.52658081 317.96510315 C80.85575191 317.9752886 83.18339369 317.95974207 85.51245117 317.9375 C86.53968796 317.94964539 86.53968796 317.94964539 87.587677 317.96203613 C91.0396156 317.90111605 92.94528468 317.43975242 95.90478516 315.60632324 C98.29668413 313.48414484 98.29668413 313.48414484 98.60229492 309.91992188 C98.28646516 306.38056046 98.28646516 306.38056046 96.02270508 304.23486328 C91.82668177 301.73420293 88.42481775 301.8527565 83.62573242 301.88085938 C82.2819603 301.86317001 82.2819603 301.86317001 80.91104126 301.84512329 C78.05794788 301.80990299 75.20558785 301.80069582 72.35229492 301.79492188 C69.49208073 301.77858329 66.6321938 301.75657077 63.77212524 301.72329712 C61.99484704 301.70365526 60.21741852 301.69433353 58.44003296 301.69638062 C57.63554718 301.68942169 56.8310614 301.68246277 56.00219727 301.67529297 C55.29557953 301.67403412 54.58896179 301.67277527 53.8609314 301.67147827 C51.97729492 301.41992188 51.97729492 301.41992188 48.97729492 299.41992188 C48.57885742 297.54492188 48.57885742 297.54492188 48.60229492 295.41992188 C48.59456055 294.71867187 48.58682617 294.01742188 48.57885742 293.29492188 C48.97729492 291.41992188 48.97729492 291.41992188 51.97729492 289.41992188 C54.84126282 289.16836548 54.84126282 289.16836548 58.37304688 289.16455078 C59.3394812 289.1591201 59.3394812 289.1591201 60.32543945 289.15357971 C61.72335203 289.1466914 63.12129146 289.14417922 64.51922035 289.14552689 C66.73501853 289.14649285 68.95033252 289.13354126 71.1660614 289.11654663 C77.46532413 289.07030154 83.76453821 289.04567921 90.06396484 289.0390625 C93.91908569 289.03403699 97.77370263 289.00973289 101.62865257 288.97373581 C103.0945654 288.96395956 104.56054774 288.96159401 106.02648354 288.9669075 C108.08265296 288.97400911 110.13733075 288.95663529 112.19335938 288.93408203 C113.36123489 288.93123199 114.52911041 288.92838196 115.7323761 288.92544556 C119.67749733 288.31083782 121.86079354 286.86765863 124.97729492 284.41992188 C127.5084927 280.80597377 127.16403876 277.76797371 126.59448242 273.54492188 C125.65397506 270.30671931 123.81302015 269.07985859 120.97729492 267.41992188 C117.21368215 265.53811549 112.3687181 266.08741967 108.1862793 265.99023438 C102.40239036 265.75110718 102.40239036 265.75110718 100.25439453 264.07763672 C98.28148605 261.51674041 98.58647165 259.54650803 98.97729492 256.41992188 C100.51557861 254.39171607 101.39957151 253.53029812 103.92340088 253.04811096 C104.65951599 253.04907272 105.3956311 253.05003448 106.15405273 253.05102539 C106.99212463 253.044142 107.83019653 253.03725861 108.69366455 253.03016663 C109.59679382 253.03632492 110.4999231 253.04248322 111.43041992 253.04882812 C113.34839039 253.03143849 115.2663591 253.01385419 117.18432617 252.99609375 C120.20372865 252.98604052 123.22301316 252.98241945 126.24243164 252.98413086 C129.15961641 252.98054709 132.07589686 252.95314502 134.99291992 252.92382812 C135.88795227 252.93201065 136.78298462 252.94019318 137.70513916 252.94862366 C143.63913509 252.87861979 147.08852079 251.82508412 151.97729492 248.41992188 C154.95916714 245.28110901 156.22303183 241.64708631 156.47729492 237.35742188 C155.80525038 232.06507111 153.89192047 229.15505127 149.97729492 225.60742188 C146.65794566 223.63655825 143.52830586 223.29629534 139.71533203 223.27807617 C138.88444565 223.27104172 138.05355927 223.26400726 137.19749451 223.25675964 C136.30885208 223.25259537 135.42020966 223.24843109 134.50463867 223.24414062 C132.61725755 223.22095651 130.7298877 223.19683977 128.8425293 223.171875 C125.87101531 223.1366669 122.89992057 223.107355 119.92822266 223.09399414 C117.05735004 223.07856572 114.18769211 223.03840854 111.31713867 222.99414062 C110.42647202 222.99604904 109.53580536 222.99795746 108.6181488 222.99992371 C102.48986783 222.87783006 102.48986783 222.87783006 99.91699219 220.5793457 C98.65062467 217.66923381 98.56833398 215.55528908 98.97729492 212.41992188 C102.65343197 209.96916384 104.44751145 210.16895116 108.83203125 210.16455078 C109.87161736 210.1591201 109.87161736 210.1591201 110.9322052 210.15357971 C112.4365234 210.14668918 113.94086659 210.14417964 115.44519997 210.14552689 C117.82901007 210.14649235 120.21236949 210.13354713 122.59611511 210.11654663 C129.37328579 210.07028554 136.15041127 210.04567704 142.92773438 210.0390625 C147.07461309 210.03403935 151.22102282 210.00974697 155.36774254 209.97373581 C156.94530098 209.96395421 158.52292409 209.96159693 160.10050392 209.9669075 C162.31230138 209.97400223 164.52270878 209.95664826 166.734375 209.93408203 C168.61942497 209.92980698 168.61942497 209.92980698 170.54255676 209.92544556 C175.57238853 209.1851565 178.54815057 206.62341185 182.35229492 203.41992188 C184.97004545 198.58715168 184.81905351 193.78250459 183.97729492 188.41992188 C182.35113389 184.93433902 180.11466211 182.96630278 176.61988831 181.28744507 C173.87395523 180.38599703 171.76386256 180.16874254 168.88330078 180.16455078 C167.89555161 180.15759186 166.90780243 180.15063293 165.89012146 180.14346313 C164.83478714 180.14446014 163.77945282 180.14545715 162.69213867 180.14648438 C160.44799298 180.12620436 158.20385238 180.10535376 155.9597168 180.08398438 C152.42866701 180.0613384 148.89781843 180.04489384 145.36669922 180.0390625 C141.95397809 180.02956359 138.54215859 179.99582784 135.12963867 179.95898438 C134.07228012 179.96402985 133.01492157 179.96907532 131.92552185 179.97427368 C124.66205631 179.87642947 124.66205631 179.87642947 121.27246094 177.61669922 C119.97729492 175.41992188 119.97729492 175.41992188 120.10229492 171.73242188 C120.53541992 170.09273438 120.53541992 170.09273438 120.97729492 168.41992188 C123.86471486 166.97621191 126.36865703 167.28718261 129.5949707 167.27807617 C130.27491592 167.27460175 130.95486115 167.27112732 131.65541077 167.26754761 C133.13464666 167.26018812 134.61389361 167.25484376 136.09314346 167.25125694 C138.43953627 167.24408891 140.78572025 167.22841755 143.13204956 167.20991516 C149.8043929 167.1574788 156.47662523 167.1095241 163.14916992 167.09399414 C167.23009949 167.08387318 171.31050833 167.05443995 175.39123154 167.01267433 C176.94200565 167.00041191 178.4928535 166.99523434 180.04367447 166.99747276 C191.60875187 167.06288663 191.60875187 167.06288663 201.97729492 162.41992188 C205.28315146 158.94877251 206.26280771 156.16279551 206.53979492 151.48242188 C206.34821447 147.09589012 205.27472213 144.37434303 202.65698242 140.89257812 C196.51855631 135.51074872 190.00503116 135.97832529 182.27075195 135.98754883 C180.3528611 135.97226135 180.3528611 135.97226135 178.39622498 135.95666504 C174.90286721 135.92915291 171.40967223 135.91981849 167.91622019 135.91381097 C164.26064037 135.90441213 160.60518142 135.87820756 156.94967651 135.85380554 C150.03316195 135.81017825 143.1166709 135.7816082 136.20006073 135.75848216 C128.32333913 135.73141021 120.44673936 135.68749997 112.57010484 135.64219344 C96.37256333 135.5494012 80.17499999 135.47769573 63.97729492 135.41992188 C62.5423485 128.24518978 62.5423485 128.24518978 64.2784729 124.95106506 C68.46736822 122.57454728 72.42051834 122.87436662 77.15844727 122.92163086 C78.19302567 122.91611206 79.22760406 122.91059326 80.29353333 122.90490723 C82.53993201 122.89558124 84.78638357 122.89548695 87.03278732 122.90350151 C90.58874732 122.91610607 94.14392819 122.90486406 97.69985962 122.88746643 C103.96773847 122.86072714 110.23542722 122.8551721 116.50335693 122.85656738 C126.52911753 122.85879317 136.55464246 122.84469675 146.58031082 122.80098152 C150.08242386 122.79113736 153.5841677 122.79986468 157.08627319 122.80967712 C159.23663576 122.80353241 161.38699632 122.79662051 163.53735352 122.78881836 C164.5100267 122.79653763 165.48269989 122.8042569 166.48484802 122.81221008 C172.98270879 122.76357226 177.20211175 121.6838871 182.35229492 117.48242188 C184.95038769 112.58601628 184.93587908 107.82805338 183.97729492 102.41992188 C181.65422269 98.07352867 178.52155478 95.28298433 173.97729492 93.41992188 C171.05454677 93.11492223 171.05454677 93.11492223 167.78392029 93.15490723 C166.51221985 93.14663406 165.24051941 93.1383609 163.93028259 93.12983704 C162.52334584 93.13066159 161.11640918 93.13165922 159.70947266 93.1328125 C158.22608057 93.12678756 156.7426919 93.11986313 155.25930786 93.11210632 C152.06669042 93.09722213 148.87413548 93.08846939 145.68148613 93.08439636 C140.63533648 93.07768436 135.58932074 93.05593285 130.54322815 93.03186035 C118.92234471 92.97872461 107.30142003 92.94533745 95.6804657 92.91210175 C85.02721819 92.88143443 74.37402812 92.8466313 63.7208553 92.79579115 C58.70226627 92.77241285 53.68377054 92.7586943 48.6651324 92.75229645 C45.5467375 92.74636869 42.42841853 92.73228214 39.31006241 92.71595192 C37.86164012 92.71006364 36.41319932 92.70760624 34.96476555 92.70879173 C32.99105666 92.70994686 31.01735319 92.69780493 29.04368591 92.68493652 C27.93812064 92.6820034 26.83255537 92.67907028 25.69348812 92.67604828 C22.97729492 92.41992188 22.97729492 92.41992188 19.97729492 90.41992188 C19.31460615 84.34527482 19.31460615 84.34527482 21.19402695 81.72092438 C23.54508782 80.0056824 24.98653224 80.04372713 27.88458252 80.04138184 C29.40276329 80.02907784 29.40276329 80.02907784 30.95161438 80.01652527 C32.0612706 80.02267349 33.17092682 80.02882172 34.31420898 80.03515625 C36.06827309 80.02709709 36.06827309 80.02709709 37.85777283 80.01887512 C41.06673653 80.00651644 44.27540337 80.00717879 47.48437595 80.01260567 C50.84573563 80.01439 54.20698515 79.99697809 57.56829834 79.98083496 C66.12128178 79.94295855 74.6742405 79.93018577 83.22729492 79.91992188 C92.44750338 79.90884436 101.66758036 79.89340752 110.88769889 79.84920931 C115.52948796 79.82795017 120.17095532 79.82970469 124.81280518 79.83532715 C127.24947453 79.82598532 129.68614089 79.81581619 132.12280273 79.8046875 C133.77514168 79.81390984 133.77514168 79.81390984 135.46086121 79.82331848 C141.40681439 79.77566098 145.75680584 79.35756342 150.97729492 76.41992188 C154.89598431 72.19186227 156.35668272 69.41793942 156.25073242 63.58007812 C155.79242509 59.9594502 154.49082003 57.06573778 151.97729492 54.41992188 C145.51960176 49.58875413 139.57911596 49.86338418 131.71166992 49.91601562 C130.44131897 49.90659439 129.17096802 49.89717316 127.86212158 49.88746643 C124.5027974 49.86370067 121.14426489 49.85516632 117.78491211 49.85656738 C113.03966481 49.858538 108.29476932 49.84906489 103.54962158 49.81666565 C101.02668694 49.79980422 98.50361128 49.79705799 95.98065186 49.80967712 C94.84226868 49.80279373 93.7038855 49.79591034 92.53100586 49.78881836 C91.52841736 49.78978012 90.52582886 49.79074188 89.49285889 49.79173279 C86.97729492 49.41992188 86.97729492 49.41992188 85.15362549 48.08436584 C83.32252761 45.49346163 83.59272011 43.49652037 83.97729492 40.41992188 C85.05810547 38.75561523 85.05810547 38.75561523 86.97729492 37.41992188 C90.16015625 37.05102539 90.16015625 37.05102539 94.05932617 37.04882812 C95.48055245 37.0314387 96.90177636 37.01385439 98.32299805 36.99609375 C100.55457073 36.98604493 102.78598381 36.98241895 105.01757812 36.98413086 C107.1778049 36.98054125 109.33681718 36.95312259 111.49682617 36.92382812 C112.78693604 36.9219751 114.0770459 36.92012207 115.40625 36.91821289 C120.10681704 36.26231234 123.45902887 34.42127258 126.35229492 30.60742188 C127.29436887 27.31016305 127.38990149 24.83866198 126.97729492 21.41992188 C124.96017361 17.94426669 122.86368956 15.71538676 118.97729492 14.41992188 C117.24020371 14.31937095 115.49953569 14.2763282 113.75956726 14.26602173 C112.1382489 14.25312103 112.1382489 14.25312103 110.48417664 14.23995972 C109.29814346 14.23569977 108.11211029 14.23143982 106.89013672 14.22705078 C105.01662033 14.21478455 105.01662033 14.21478455 103.10525513 14.20227051 C98.96234457 14.1774099 94.81947048 14.1607473 90.67651367 14.14648438 C89.24928087 14.14112357 87.82204812 14.13574605 86.39481544 14.13035202 C80.45763238 14.10872908 74.52045201 14.08999257 68.58323956 14.07872963 C60.07924241 14.06249016 51.57570211 14.02930643 43.07187718 13.97232878 C37.08960677 13.93361453 31.10745849 13.91409529 25.1250661 13.90880907 C21.55325411 13.90515788 17.98192974 13.89316249 14.41025352 13.86070633 C10.4242452 13.8250032 6.4388094 13.82900042 2.45263672 13.83642578 C1.27267624 13.82002045 0.09271576 13.80361511 -1.1230011 13.78671265 C-7.8793967 13.8383063 -11.4654405 14.25229059 -16.02270508 19.41992188 Z " fill="#02ADB5" transform="translate(545.022705078125,232.580078125)"/>
<path d="M0 0 C0.94921875 2.50390625 0.94921875 2.50390625 1.6875 5.5625 C1.93886719 6.57441406 2.19023438 7.58632813 2.44921875 8.62890625 C2.63097656 9.41136719 2.81273437 10.19382812 3 11 C-2.02649303 12.57077907 -6.76119922 13.44854729 -12 14 C-11.071875 14.556875 -10.14375 15.11375 -9.1875 15.6875 C-5.86862095 18.09531421 -4.47983827 19.2181911 -3 23 C-2.28208698 28.95269545 -2.45954592 33.97483936 -6 39 C-11.15387684 44.42022707 -16.21484492 47.82385524 -23.77734375 48.17578125 C-27.52240111 48.21564113 -31.25728795 48.13005563 -35 48 C-35 49.65 -35 51.3 -35 53 C-34.11646851 53.01401855 -34.11646851 53.01401855 -33.21508789 53.02832031 C-30.49676984 53.08263875 -27.78006152 53.1661584 -25.0625 53.25 C-24.13630859 53.26417969 -23.21011719 53.27835938 -22.25585938 53.29296875 C-14.35435919 53.57021437 -8.14544235 55.32302779 -2.0625 60.5 C1.53846217 64.86480263 2.46469302 68.0993796 2.30859375 73.69140625 C1.70083006 78.2380941 -0.24994798 81.40249489 -3.61328125 84.47265625 C-13.76905697 92.1964502 -27.75525767 92.01923802 -40 91 C-45.63414271 89.88084566 -50.28958623 88.28302484 -54.125 83.875 C-57.39168444 78.86608386 -57 79.02076874 -57 72 C-52.05 72 -47.1 72 -42 72 C-41.67 73.32 -41.34 74.64 -41 76 C-37.52576879 78.72913424 -33.28267152 78.33173506 -29.0625 78.3125 C-28.35931641 78.32861328 -27.65613281 78.34472656 -26.93164062 78.36132812 C-22.42544319 78.36555137 -19.6254713 77.68895034 -16 75 C-16.34227572 72.02934491 -16.34227572 72.02934491 -17 69 C-19.24293167 67.87853417 -20.54611602 67.84909246 -23.03515625 67.7890625 C-23.84533203 67.76070312 -24.65550781 67.73234375 -25.49023438 67.703125 C-27.17753693 67.65187815 -28.86506068 67.60737514 -30.55273438 67.5703125 C-37.60557262 67.30395826 -44.57639177 66.60094542 -49.5625 61.25 C-51.30528167 57.30979797 -51.7354857 55.26581706 -51 51 C-49.24300882 48.11061277 -47.22123432 45.54516433 -45 43 C-45.60457031 42.731875 -46.20914062 42.46375 -46.83203125 42.1875 C-50.54359544 40.15449908 -53.11065622 36.77868755 -55 33 C-55.60041679 27.06473238 -55.778611 21.61291505 -52.32421875 16.55859375 C-47.87375071 11.32043225 -42.87702294 7.37118556 -36 6 C-32.74005456 5.76714675 -29.48895907 5.60843072 -26.22387695 5.48095703 C-18.79064245 5.1050074 -11.39819288 3.41267775 -4.828125 -0.19140625 C-3 -1 -3 -1 0 0 Z " fill="#3B3F47" transform="translate(555,737)"/>
<path d="M0 0 C5.61 0.33 11.22 0.66 17 1 C17 28.39 17 55.78 17 84 C12.05 84 7.1 84 2 84 C1.34 82.68 0.68 81.36 0 80 C-0.70125 80.61875 -1.4025 81.2375 -2.125 81.875 C-7.19452821 85.62204259 -12.18862727 86.59823751 -18.40625 86.4296875 C-23.20188752 85.63522948 -26.59413275 83.40586725 -30 80 C-37.51890603 68.74855828 -37.27947248 54.77798692 -35.57421875 41.74609375 C-33.81820665 34.86209538 -29.80458268 29.79423707 -24.1171875 25.6171875 C-19.09573289 22.71002957 -13.69809892 21.8311592 -8 23 C-4.535 24.98 -4.535 24.98 -1 27 C-0.67 18.09 -0.34 9.18 0 0 Z " fill="#3A3F47" transform="translate(826,719)"/>
<path d="M0 0 C6.27 0 12.54 0 19 0 C22.03170417 15.29033408 24.85630922 30.558455 27 46 C28.50836604 44.49163396 28.35419552 42.9988119 28.61328125 40.8984375 C28.72502686 40.02590332 28.83677246 39.15336914 28.9519043 38.25439453 C29.07090088 37.30419434 29.18989746 36.35399414 29.3125 35.375 C30.85458242 23.51722372 32.87364105 11.76513325 35 0 C41.27 0 47.54 0 54 0 C55.122578 14.856245 56.14549549 29.71519532 56.99127197 44.58972168 C57.07934338 46.13593558 57.16862733 47.68208097 57.25921631 49.22814941 C57.79953203 58.49538263 58.09347479 67.71261234 58 77 C52.72 77 47.44 77 42 77 C41.67 60.17 41.34 43.34 41 26 C39.0688585 37.00900129 39.0688585 37.00900129 37.14086914 48.01855469 C36.897412 49.40301481 36.65384821 50.78745619 36.41015625 52.171875 C36.28572144 52.88553223 36.16128662 53.59918945 36.03308105 54.33447266 C35.45747411 57.59719802 34.80424608 60.78301569 34 64 C29.38 64 24.76 64 20 64 C17.36 50.47 14.72 36.94 12 23 C12 40.82 12 58.64 12 77 C6.72 77 1.44 77 -4 77 C-3.2982235 51.30046076 -1.600012 25.65588379 0 0 Z " fill="#3B4048" transform="translate(573,726)"/>
<path d="M0 0 C7.59 0 15.18 0 23 0 C23.804375 2.866875 24.60875 5.73375 25.4375 8.6875 C27.97277829 17.62493088 30.67208644 26.5063011 33.4375 35.375 C33.81825684 36.59646729 34.19901367 37.81793457 34.59130859 39.07641602 C35.35455063 41.52303255 36.11805693 43.96956667 36.88183594 46.41601562 C38.61857388 51.98267785 40.34750495 57.55160044 42.0625 63.125 C42.36148193 64.0845459 42.66046387 65.0440918 42.96850586 66.03271484 C43.23800049 66.91137207 43.50749512 67.7900293 43.78515625 68.6953125 C44.02113525 69.45859863 44.25711426 70.22188477 44.50024414 71.00830078 C45 73 45 73 45 76 C38.73 76 32.46 76 26 76 C24.68 71.05 23.36 66.1 22 61 C14.41 60.67 6.82 60.34 -1 60 C-1.33 62.97 -1.66 65.94 -2 69 C-2.66 71.31 -3.32 73.62 -4 76 C-10.27 76 -16.54 76 -23 76 C-20.43213362 65.95511094 -17.77793805 56.00950052 -14.59228516 46.14477539 C-12.82672863 40.65977239 -11.12821465 35.15729713 -9.46484375 29.640625 C-9.24206253 28.90200226 -9.01928131 28.16337952 -8.78974915 27.40237427 C-7.88514146 24.40041962 -6.98159199 21.39815819 -6.0819397 18.39471436 C-5.44710521 16.27560188 -4.80963326 14.15729654 -4.171875 12.0390625 C-3.8015918 10.80365723 -3.43130859 9.56825195 -3.04980469 8.29541016 C-2.15556022 5.48831439 -1.09415121 2.73537803 0 0 Z " fill="#3A3F47" transform="translate(952,726)"/>
<path d="M0 0 C7.55772422 3.84184315 12.75224155 9.13628231 15.80859375 17.109375 C18.26759797 25.86003831 17.16198337 34.34586151 12.74609375 42.2421875 C8.01244895 49.0782413 1.93645932 52.75215811 -6 55 C-15.72946783 56.04985475 -22.52510916 54.43772215 -30.6875 49.3125 C-37.55225908 42.44774092 -40.83599548 35.22601799 -41.375 25.625 C-41.1690677 18.1599543 -38.01224949 11.00304124 -32.87109375 5.60546875 C-23.19794368 -2.69445751 -11.97746813 -4.72235783 0 0 Z " fill="#01ADB5" transform="translate(612,444)"/>
<path d="M0 0 C6.27 0 12.54 0 19 0 C19.54269531 2.31515625 20.08539063 4.6303125 20.64453125 7.015625 C21.18053739 9.29952808 21.71684202 11.58336088 22.25317383 13.8671875 C22.62099772 15.43417185 22.98851943 17.00122717 23.35571289 18.56835938 C25.50258232 27.72989767 27.68002532 36.88032975 30 46 C30.29245605 44.81970215 30.58491211 43.6394043 30.88623047 42.42333984 C31.97593716 38.0282065 33.06879944 33.63386282 34.16259766 29.23974609 C34.63480828 27.34087033 35.10617249 25.44178386 35.57666016 23.54248047 C36.25458845 20.806402 36.93559607 18.07110542 37.6171875 15.3359375 C37.82560272 14.49195404 38.03401794 13.64797058 38.24874878 12.77841187 C38.44880524 11.97803497 38.64886169 11.17765808 38.85498047 10.35302734 C39.02818817 9.65575531 39.20139587 8.95848328 39.37985229 8.24008179 C40.14884306 5.46235288 41.08856571 2.73430287 42 0 C47.94 0 53.88 0 60 0 C57.9542364 7.70949434 55.6885791 15.30187044 53.19921875 22.87890625 C52.84036087 23.97162338 52.48150299 25.06434052 52.11177063 26.19017029 C51.35630121 28.48404943 50.59904927 30.77734222 49.84008789 33.07006836 C49.07168863 35.39837835 48.30866386 37.72846895 47.55102539 40.06030273 C46.44563012 43.46220038 45.32422031 46.85844898 44.19921875 50.25390625 C43.86774338 51.28334854 43.53626801 52.31279083 43.19474792 53.37342834 C39.4451366 64.55582262 34.26879034 74.56276697 23.546875 80.31640625 C18.17229194 82.68221198 13.84197744 83.43273907 8 83 C7.34 79.04 6.68 75.08 6 71 C11 69.33333333 16 67.66666667 21 66 C22.37334617 63.71108972 23.15250816 61.54247553 24 59 C22.35 59 20.7 59 19 59 C16.20464726 52.88621285 14.20049339 46.60959782 12.20703125 40.1953125 C11.85613937 39.07559052 11.5052475 37.95586853 11.14372253 36.80221558 C10.40667237 34.44778429 9.67137885 32.09280245 8.93774414 29.73730469 C7.80947296 26.11528247 6.67570265 22.49501684 5.54101562 18.875 C4.82520092 16.58603752 4.10969512 14.29697841 3.39453125 12.0078125 C3.05396194 10.91937042 2.71339264 9.83092834 2.36250305 8.70950317 C2.0518541 7.7111142 1.74120514 6.71272522 1.42114258 5.68408203 C1.14595291 4.80140656 0.87076324 3.91873108 0.5872345 3.00930786 C0 1 0 1 0 0 Z " fill="#3A3F47" transform="translate(279,745)"/>
<path d="M0 0 C16.5 0 33 0 50 0 C50 4.29 50 8.58 50 13 C44.72 13 39.44 13 34 13 C34 29.83 34 46.66 34 64 C39.28 64 44.56 64 50 64 C50 68.29 50 72.58 50 77 C33.5 77 17 77 0 77 C0 72.71 0 68.42 0 64 C5.28 64 10.56 64 16 64 C16 47.17 16 30.34 16 13 C10.72 13 5.44 13 0 13 C0 8.71 0 4.42 0 0 Z " fill="#3A3F47" transform="translate(1011,726)"/>
<path d="M0 0 C3.88031268 2.35862143 6.28414667 4.84927474 8.1875 8.9375 C8.84974718 12.8972609 8.77153826 16.77201035 8.67578125 20.77734375 C8.66870651 21.89943741 8.66163177 23.02153107 8.65434265 24.17762756 C8.62646482 27.74411067 8.56373449 31.30899536 8.5 34.875 C8.47490877 37.30010746 8.45209706 39.72523964 8.43164062 42.15039062 C8.3766591 48.08003831 8.29042855 54.00849861 8.1875 59.9375 C2.5775 59.9375 -3.0325 59.9375 -8.8125 59.9375 C-9.1425 44.4275 -9.4725 28.9175 -9.8125 12.9375 C-17.30329017 12.50679193 -17.30329017 12.50679193 -22.70465088 16.22714233 C-24.96427463 19.71567226 -24.65827354 23.57922799 -24.6171875 27.61328125 C-24.63774704 29.00101997 -24.63774704 29.00101997 -24.65872192 30.41679382 C-24.69600954 33.3616911 -24.69230793 36.30490023 -24.6875 39.25 C-24.70562765 41.25067739 -24.72643055 43.25133245 -24.75 45.25195312 C-24.80183948 50.14741815 -24.81693138 55.04177556 -24.8125 59.9375 C-30.4225 59.9375 -36.0325 59.9375 -41.8125 59.9375 C-41.8125 40.4675 -41.8125 20.9975 -41.8125 0.9375 C-36.8625 0.9375 -31.9125 0.9375 -26.8125 0.9375 C-26.1525 2.5875 -25.4925 4.2375 -24.8125 5.9375 C-24.18601562 5.51597656 -23.55953125 5.09445312 -22.9140625 4.66015625 C-22.09679687 4.11230469 -21.27953125 3.56445312 -20.4375 3 C-19.62539063 2.45472656 -18.81328125 1.90945313 -17.9765625 1.34765625 C-12.35319017 -2.31667121 -6.32666919 -1.7631701 0 0 Z " fill="#393E46" transform="translate(761.8125,743.0625)"/>
<path d="M0 0 C3.88031268 2.35862143 6.28414667 4.84927474 8.1875 8.9375 C8.84974718 12.8972609 8.77153826 16.77201035 8.67578125 20.77734375 C8.66870651 21.89943741 8.66163177 23.02153107 8.65434265 24.17762756 C8.62646482 27.74411067 8.56373449 31.30899536 8.5 34.875 C8.47490877 37.30010746 8.45209706 39.72523964 8.43164062 42.15039062 C8.3766591 48.08003831 8.29042855 54.00849861 8.1875 59.9375 C2.5775 59.9375 -3.0325 59.9375 -8.8125 59.9375 C-9.1425 44.4275 -9.4725 28.9175 -9.8125 12.9375 C-17.30329017 12.50679193 -17.30329017 12.50679193 -22.70465088 16.22714233 C-24.96427463 19.71567226 -24.65827354 23.57922799 -24.6171875 27.61328125 C-24.63774704 29.00101997 -24.63774704 29.00101997 -24.65872192 30.41679382 C-24.69600954 33.3616911 -24.69230793 36.30490023 -24.6875 39.25 C-24.70562765 41.25067739 -24.72643055 43.25133245 -24.75 45.25195312 C-24.80183948 50.14741815 -24.81693138 55.04177556 -24.8125 59.9375 C-30.4225 59.9375 -36.0325 59.9375 -41.8125 59.9375 C-41.8125 40.4675 -41.8125 20.9975 -41.8125 0.9375 C-36.8625 0.9375 -31.9125 0.9375 -26.8125 0.9375 C-26.1525 2.5875 -25.4925 4.2375 -24.8125 5.9375 C-24.18601562 5.51597656 -23.55953125 5.09445312 -22.9140625 4.66015625 C-22.09679687 4.11230469 -21.27953125 3.56445312 -20.4375 3 C-19.62539063 2.45472656 -18.81328125 1.90945313 -17.9765625 1.34765625 C-12.35319017 -2.31667121 -6.32666919 -1.7631701 0 0 Z " fill="#393E46" transform="translate(471.8125,743.0625)"/>
<path d="M0 0 C16.5 0 33 0 50 0 C49 11 49 11 48 13 C38.1 13 28.2 13 18 13 C18 19.6 18 26.2 18 33 C26.91 33 35.82 33 45 33 C45 37.29 45 41.58 45 46 C36.09 46 27.18 46 18 46 C18 55.9 18 65.8 18 76 C12.06 76 6.12 76 0 76 C0 50.92 0 25.84 0 0 Z " fill="#393E46" transform="translate(143,726)"/>
<path d="M0 0 C0.928125 0.598125 1.85625 1.19625 2.8125 1.8125 C2.07924793 3.30004006 1.32523922 4.77736192 0.5625 6.25 C-0.06398438 7.48556641 -0.06398438 7.48556641 -0.703125 8.74609375 C-2.1875 10.8125 -2.1875 10.8125 -4.140625 11.6875 C-7.01942891 11.86330482 -9.13907243 10.60351149 -11.75 9.515625 C-16.44875297 8.16021549 -21.34339193 8.59451514 -26.1875 8.8125 C-26.8475 10.1325 -27.5075 11.4525 -28.1875 12.8125 C-25.9171496 15.40854512 -24.04464541 16.4164599 -20.765625 17.42578125 C-19.90453125 17.70486328 -19.0434375 17.98394531 -18.15625 18.27148438 C-16.36131139 18.83498163 -14.56445254 19.3924027 -12.765625 19.94335938 C-6.30192186 22.05464336 -0.49719404 24.73255659 2.97802734 30.87133789 C4.78190274 35.06753838 4.40495601 39.62160561 3.23046875 43.96484375 C0.73634919 49.89834278 -3.51537142 53.01326772 -9.1875 55.8125 C-20.06396197 60.03321658 -31.94598418 58.55866555 -42.4453125 54.19921875 C-44.94524845 52.93500612 -47.02227592 51.57886701 -49.1875 49.8125 C-47.7015084 45.21943504 -45.33735318 42.37680755 -42.1875 38.8125 C-39.4029294 39.90945205 -36.77414286 41.03183236 -34.125 42.4375 C-29.12660447 44.61119519 -23.52505788 44.41336543 -18.1875 43.8125 C-17.1975 43.1525 -16.2075 42.4925 -15.1875 41.8125 C-14.93719023 39.22869823 -14.93719023 39.22869823 -15.1875 36.8125 C-20.0150728 34.57155263 -24.84192378 32.54994549 -29.875 30.8125 C-36.44645456 28.45375165 -41.15267404 25.64058194 -45.1875 19.8125 C-46.82718743 14.89343772 -46.74653081 10.55947129 -45.1875 5.6875 C-35.01463864 -8.9359882 -14.26393521 -8.01633159 0 0 Z " fill="#3B3F47" transform="translate(912.1875,747.1875)"/>
<path d="M0 0 C11.22 0 22.44 0 34 0 C34.03738281 4.72957031 34.07476562 9.45914063 34.11328125 14.33203125 C34.14355319 17.32620851 34.17469576 20.32032576 34.20898438 23.31445312 C34.26333952 28.06808482 34.31444781 32.82159778 34.34643555 37.57543945 C34.37242319 41.4076262 34.41279253 45.239415 34.46318626 49.07135582 C34.47988589 50.53414655 34.49138088 51.99700615 34.49761391 53.45987892 C34.50722194 55.50728817 34.5352383 57.55367224 34.56762695 59.60083008 C34.58428154 61.34956169 34.58428154 61.34956169 34.60127258 63.13362122 C34.77267241 65.98934991 34.77267241 65.98934991 36.34465027 67.88163757 C38.90815488 69.61355391 41.14684726 69.28558557 44.1875 69.1875 C45.81751953 69.14689453 45.81751953 69.14689453 47.48046875 69.10546875 C48.31191406 69.07066406 49.14335937 69.03585937 50 69 C50.69937202 70.4317616 51.38412718 71.87067032 52.0625 73.3125 C52.44535156 74.11300781 52.82820313 74.91351562 53.22265625 75.73828125 C54 78 54 78 53 81 C46.08373176 84.66155377 38.70329771 84.91152711 31 84 C27.14899753 82.43349052 24.39362852 80.83512034 21.75 77.625 C21.03070313 76.77808594 21.03070313 76.77808594 20.296875 75.9140625 C17.49889385 71.78451201 16.751034 68.14183361 16.77294922 63.19995117 C16.77310028 62.05914597 16.77325134 60.91834076 16.77340698 59.7429657 C16.78372955 58.52196671 16.79405212 57.30096771 16.8046875 56.04296875 C16.8075174 54.78486893 16.81034729 53.5267691 16.81326294 52.23054504 C16.82254879 48.89812618 16.84049524 45.56598453 16.8626709 42.23364258 C16.88318983 38.82831203 16.89227754 35.42295277 16.90234375 32.01757812 C16.92438363 25.34496595 16.95890332 18.67252092 17 12 C11.39 12 5.78 12 0 12 C0 8.04 0 4.08 0 0 Z " fill="#393E46" transform="translate(208,721)"/>
<path d="M0 0 C10.89 0 21.78 0 33 0 C33 15.51 33 31.02 33 47 C37.95 47 42.9 47 48 47 C48 50.96 48 54.92 48 59 C32.16 59 16.32 59 0 59 C0 55.04 0 51.08 0 47 C5.28 47 10.56 47 16 47 C16 35.45 16 23.9 16 12 C10.72 12 5.44 12 0 12 C0 8.04 0 4.08 0 0 Z " fill="#393E46" transform="translate(650,744)"/>
<path d="M0 0 C10.89 0 21.78 0 33 0 C33 15.51 33 31.02 33 47 C37.95 47 42.9 47 48 47 C48 50.96 48 54.92 48 59 C32.16 59 16.32 59 0 59 C0 55.04 0 51.08 0 47 C5.28 47 10.56 47 16 47 C16 35.45 16 23.9 16 12 C10.72 12 5.44 12 0 12 C0 8.04 0 4.08 0 0 Z " fill="#393E46" transform="translate(359,744)"/>
<path d="M0 0 C2.59357048 0.79765427 3.47900849 1.49078229 5.12109375 3.65234375 C5.77409249 8.08010923 5.58415224 12.55693172 5.55859375 17.02734375 C5.58856445 18.87585938 5.58856445 18.87585938 5.61914062 20.76171875 C5.61849609 21.95023438 5.61785156 23.13875 5.6171875 24.36328125 C5.61996704 25.99209229 5.61996704 25.99209229 5.62280273 27.65380859 C5.00653407 31.337026 3.70487125 33.00451802 1.12109375 35.65234375 C-1.87971121 36.79877804 -4.68744125 36.92858474 -7.87890625 36.65234375 C-10.66768338 35.07918742 -11.48664498 33.74750093 -12.5546875 30.765625 C-14.95427953 21.67329328 -14.96160536 12.22601189 -10.87890625 3.65234375 C-7.95427522 -1.07206022 -5.05887205 -0.62276165 0 0 Z " fill="#E9EAEA" transform="translate(820.87890625,755.34765625)"/>
<path d="M0 0 C3.34139976 0.02999461 4.22721051 0.29795352 7.1875 2.1875 C10.32180405 5.41678296 10.63788997 7.7618388 10.61328125 12.2734375 C10.00965397 15.661539 7.8344052 17.23236899 5.25 19.3125 C4.92 19.6425 4.59 19.9725 4.25 20.3125 C-2.82616708 20.90218059 -2.82616708 20.90218059 -6.6875 18.4375 C-9.82180405 15.20821704 -10.13788997 12.8631612 -10.11328125 8.3515625 C-9.50965397 4.963461 -7.3344052 3.39263101 -4.75 1.3125 C-3.75 0.3125 -3.75 0.3125 0 0 Z " fill="#3C4149" transform="translate(672.75,712.6875)"/>
<path d="M0 0 C3.34139976 0.02999461 4.22721051 0.29795352 7.1875 2.1875 C10.32180405 5.41678296 10.63788997 7.7618388 10.61328125 12.2734375 C10.00965397 15.661539 7.8344052 17.23236899 5.25 19.3125 C4.92 19.6425 4.59 19.9725 4.25 20.3125 C-2.82616708 20.90218059 -2.82616708 20.90218059 -6.6875 18.4375 C-9.82180405 15.20821704 -10.13788997 12.8631612 -10.11328125 8.3515625 C-9.50965397 4.963461 -7.3344052 3.39263101 -4.75 1.3125 C-3.75 0.3125 -3.75 0.3125 0 0 Z " fill="#3C4149" transform="translate(381.75,712.6875)"/>
<path d="M0 0 C0.99 0 1.98 0 3 0 C3 9.57 3 19.14 3 29 C2.01 29 1.02 29 0 29 C-0.33 28.34 -0.66 27.68 -1 27 C-1.66 27.66 -2.32 28.32 -3 29 C-5.875 29.4375 -5.875 29.4375 -9 29 C-11.91472533 26.77560436 -12.83898913 25.0036846 -13.41796875 21.39453125 C-13.6556804 16.63387363 -13.52941565 13.83423071 -10.9375 9.75 C-8 8 -8 8 -4.1875 8.1875 C-3.135625 8.455625 -2.08375 8.72375 -1 9 C-0.67 6.03 -0.34 3.06 0 0 Z " fill="#979A9E" transform="translate(470,883)"/>
<path d="M0 0 C0 0.99 0 1.98 0 3 C-1.32 3.33 -2.64 3.66 -4 4 C-3.34 4.66 -2.68 5.32 -2 6 C-2.14221998 9.3421695 -2.40834551 11.31732174 -4.625 13.875 C-7.83105694 15.39365855 -10.50045311 15.20189694 -14 15 C-13.67 15.66 -13.34 16.32 -13 17 C-10.49487377 17.56567366 -7.98910215 17.89362157 -5.4453125 18.2421875 C-2.41051609 19.18268351 -1.50442224 20.23845781 0 23 C-0.90978285 26.82108796 -1.67291667 27.78194445 -5 30 C-7.375 30.30078125 -7.375 30.30078125 -10 30.3125 C-11.299375 30.33763672 -11.299375 30.33763672 -12.625 30.36328125 C-15 30 -15 30 -16.8125 28.66796875 C-18 27 -18 27 -18 24 C-17.01 24 -16.02 24 -15 24 C-14.67 24.66 -14.34 25.32 -14 26 C-11.03 26 -8.06 26 -5 26 C-4.67 24.68 -4.34 23.36 -4 22 C-4.77085937 21.95101562 -5.54171875 21.90203125 -6.3359375 21.8515625 C-7.33882813 21.77679687 -8.34171875 21.70203125 -9.375 21.625 C-10.87160156 21.52058594 -10.87160156 21.52058594 -12.3984375 21.4140625 C-15 21 -15 21 -17 19 C-16.66666667 17 -16.33333333 15 -16 13 C-16.66 12.34 -17.32 11.68 -18 11 C-18.4375 8.125 -18.4375 8.125 -18 5 C-15.18054094 1.63483919 -12.65645309 0.75822372 -8.4375 0.25 C-5.60478345 0.03398695 -2.8479127 0 0 0 Z " fill="#9A9DA1" transform="translate(303,890)"/>
<path d="M0 0 C2.82189509 1.66419454 3.71614764 2.94343842 4.5625 6.09375 C5.17492213 9.92138833 5.2864399 12.32686624 3.75 15.9375 C1.2086544 18.93265731 -0.46175419 19.9302274 -4.375 20.4375 C-8 20 -8 20 -10.9375 18.125 C-13.82822957 13.74510672 -14.02120414 10.10602071 -13 5 C-9.45125094 -0.5449204 -6.11907918 -0.87415417 0 0 Z " fill="#E6E7E7" transform="translate(531,754)"/>
<path d="M0 0 C2.36497439 1.86708505 3.66030715 3.32061431 5 6 C5.16796875 8.0234375 5.16796875 8.0234375 5.1875 10.375 C5.20167969 11.14585937 5.21585938 11.91671875 5.23046875 12.7109375 C4.97105568 15.28748088 4.39340154 16.82425673 3 19 C-0.7205836 21.48038907 -2.59796571 21.46337203 -7 21 C-9.36497439 19.13291495 -10.66030715 17.67938569 -12 15 C-12.54930958 9.62310433 -12.54185108 5.35920132 -9 1 C-5.90826248 -0.54586876 -3.40570448 -0.29359521 0 0 Z " fill="#9B9EA1" transform="translate(1057,891)"/>
<path d="M0 0 C2.36497439 1.86708505 3.66030715 3.32061431 5 6 C5.16796875 8.0234375 5.16796875 8.0234375 5.1875 10.375 C5.20167969 11.14585937 5.21585938 11.91671875 5.23046875 12.7109375 C4.97105568 15.28748088 4.39340154 16.82425673 3 19 C-0.7205836 21.48038907 -2.59796571 21.46337203 -7 21 C-9.36497439 19.13291495 -10.66030715 17.67938569 -12 15 C-12.54930958 9.62310433 -12.54185108 5.35920132 -9 1 C-5.90826248 -0.54586876 -3.40570448 -0.29359521 0 0 Z " fill="#9B9EA1" transform="translate(984,891)"/>
<path d="M0 0 C2.36497439 1.86708505 3.66030715 3.32061431 5 6 C5.16796875 8.0234375 5.16796875 8.0234375 5.1875 10.375 C5.20167969 11.14585937 5.21585938 11.91671875 5.23046875 12.7109375 C4.97105568 15.28748088 4.39340154 16.82425673 3 19 C-0.7205836 21.48038907 -2.59796571 21.46337203 -7 21 C-9.36497439 19.13291495 -10.66030715 17.67938569 -12 15 C-12.54930958 9.62310433 -12.54185108 5.35920132 -9 1 C-5.90826248 -0.54586876 -3.40570448 -0.29359521 0 0 Z " fill="#9B9EA1" transform="translate(935,891)"/>
<path d="M0 0 C2.36497439 1.86708505 3.66030715 3.32061431 5 6 C5.16796875 8.0234375 5.16796875 8.0234375 5.1875 10.375 C5.20167969 11.14585937 5.21585938 11.91671875 5.23046875 12.7109375 C4.97105568 15.28748088 4.39340154 16.82425673 3 19 C-0.7205836 21.48038907 -2.59796571 21.46337203 -7 21 C-9.36497439 19.13291495 -10.66030715 17.67938569 -12 15 C-12.54930958 9.62310433 -12.54185108 5.35920132 -9 1 C-5.90826248 -0.54586876 -3.40570448 -0.29359521 0 0 Z " fill="#9B9EA1" transform="translate(591,891)"/>
<path d="M0 0 C2.36497439 1.86708505 3.66030715 3.32061431 5 6 C5.16796875 8.0234375 5.16796875 8.0234375 5.1875 10.375 C5.20167969 11.14585937 5.21585937 11.91671875 5.23046875 12.7109375 C4.97105568 15.28748088 4.39340154 16.82425673 3 19 C-0.7205836 21.48038907 -2.59796571 21.46337203 -7 21 C-9.36497439 19.13291495 -10.66030715 17.67938569 -12 15 C-12.54930958 9.62310433 -12.54185108 5.35920132 -9 1 C-5.90826248 -0.54586876 -3.40570448 -0.29359521 0 0 Z " fill="#9B9EA1" transform="translate(444,891)"/>
<path d="M0 0 C0.66 0.33 1.32 0.66 2 1 C2.86962891 3.72802734 2.86962891 3.72802734 3.7265625 7.3359375 C3.87910492 7.97109283 4.03164734 8.60624817 4.18881226 9.26065063 C4.51031615 10.60643335 4.82780322 11.95318099 5.14160156 13.30078125 C5.62188107 15.36161697 6.11450105 17.41918813 6.609375 19.4765625 C9 29.5362422 9 29.5362422 9 33 C3.72 33 -1.56 33 -7 33 C-6.30564279 25.8279053 -4.66237462 18.98754312 -2.9375 12 C-2.65583984 10.84371094 -2.37417969 9.68742188 -2.08398438 8.49609375 C-1.39328783 5.66306724 -0.6985301 2.83110327 0 0 Z " fill="#E5E6E6" transform="translate(962,740)"/>
<path d="M0 0 C1.65 0 3.3 0 5 0 C6.33802265 4.123494 7.66962301 8.24903352 9 12.375 C9.3815625 13.550625 9.763125 14.72625 10.15625 15.9375 C10.5171875 17.05898438 10.878125 18.18046875 11.25 19.3359375 C11.75273437 20.89127197 11.75273437 20.89127197 12.265625 22.47802734 C13 25 13 25 13 27 C11.68 27 10.36 27 9 27 C8.67 24.69 8.34 22.38 8 20 C4.37 20 0.74 20 -3 20 C-3.66 22.31 -4.32 24.62 -5 27 C-5.99 27 -6.98 27 -8 27 C-6.68764148 20.63569826 -4.98780585 14.57878972 -2.875 8.4375 C-2.59785156 7.61958984 -2.32070313 6.80167969 -2.03515625 5.95898438 C-1.36094863 3.97123432 -0.68107796 1.98540651 0 0 Z " fill="#9A9DA0" transform="translate(340,885)"/>
<path d="M0 0 C2.6606187 2.79735285 2.43069794 5.05615391 2.57421875 8.85546875 C2.6309375 10.08136719 2.68765625 11.30726563 2.74609375 12.5703125 C2.80323939 15.01900297 2.82421875 17.46861156 2.82421875 19.91796875 C1.50421875 19.25796875 0.18421875 18.59796875 -1.17578125 17.91796875 C-2.16578125 18.57796875 -3.15578125 19.23796875 -4.17578125 19.91796875 C-7.26334055 20.23958951 -9.31593686 20.4052139 -12.05078125 18.85546875 C-13.85865942 15.74190079 -13.67676667 13.4248667 -13.17578125 9.91796875 C-10.22631917 7.14726195 -8.40989799 6.92948269 -4.36328125 6.73046875 C-3.31140625 6.79234375 -2.25953125 6.85421875 -1.17578125 6.91796875 C-1.50578125 5.59796875 -1.83578125 4.27796875 -2.17578125 2.91796875 C-5.14578125 2.91796875 -8.11578125 2.91796875 -11.17578125 2.91796875 C-11.50578125 1.92796875 -11.83578125 0.93796875 -12.17578125 -0.08203125 C-8.00079689 -1.4736927 -4.0455601 -2.01188536 0 0 Z " fill="#999CA0" transform="translate(764.17578125,892.08203125)"/>
<path d="M0 0 C2.6606187 2.79735285 2.43069794 5.05615391 2.57421875 8.85546875 C2.6309375 10.08136719 2.68765625 11.30726563 2.74609375 12.5703125 C2.80323939 15.01900297 2.82421875 17.46861156 2.82421875 19.91796875 C1.50421875 19.25796875 0.18421875 18.59796875 -1.17578125 17.91796875 C-2.16578125 18.57796875 -3.15578125 19.23796875 -4.17578125 19.91796875 C-7.26334055 20.23958951 -9.31593686 20.4052139 -12.05078125 18.85546875 C-13.85865942 15.74190079 -13.67676667 13.4248667 -13.17578125 9.91796875 C-10.22631917 7.14726195 -8.40989799 6.92948269 -4.36328125 6.73046875 C-3.31140625 6.79234375 -2.25953125 6.85421875 -1.17578125 6.91796875 C-1.50578125 5.59796875 -1.83578125 4.27796875 -2.17578125 2.91796875 C-5.14578125 2.91796875 -8.11578125 2.91796875 -11.17578125 2.91796875 C-11.50578125 1.92796875 -11.83578125 0.93796875 -12.17578125 -0.08203125 C-8.00079689 -1.4736927 -4.0455601 -2.01188536 0 0 Z " fill="#999CA0" transform="translate(666.17578125,892.08203125)"/>
<path d="M0 0 C2.6606187 2.79735285 2.43069794 5.05615391 2.57421875 8.85546875 C2.6309375 10.08136719 2.68765625 11.30726563 2.74609375 12.5703125 C2.80323939 15.01900297 2.82421875 17.46861156 2.82421875 19.91796875 C1.50421875 19.25796875 0.18421875 18.59796875 -1.17578125 17.91796875 C-2.16578125 18.57796875 -3.15578125 19.23796875 -4.17578125 19.91796875 C-7.26334055 20.23958951 -9.31593686 20.4052139 -12.05078125 18.85546875 C-13.85865942 15.74190079 -13.67676667 13.4248667 -13.17578125 9.91796875 C-10.22631917 7.14726195 -8.40989799 6.92948269 -4.36328125 6.73046875 C-3.31140625 6.79234375 -2.25953125 6.85421875 -1.17578125 6.91796875 C-1.50578125 5.59796875 -1.83578125 4.27796875 -2.17578125 2.91796875 C-5.14578125 2.91796875 -8.11578125 2.91796875 -11.17578125 2.91796875 C-11.50578125 1.92796875 -11.83578125 0.93796875 -12.17578125 -0.08203125 C-8.00079689 -1.4736927 -4.0455601 -2.01188536 0 0 Z " fill="#999CA0" transform="translate(494.17578125,892.08203125)"/>
<path d="M0 0 C2.6606187 2.79735285 2.43069794 5.05615391 2.57421875 8.85546875 C2.6309375 10.08136719 2.68765625 11.30726563 2.74609375 12.5703125 C2.80323939 15.01900297 2.82421875 17.46861156 2.82421875 19.91796875 C1.50421875 19.25796875 0.18421875 18.59796875 -1.17578125 17.91796875 C-2.16578125 18.57796875 -3.15578125 19.23796875 -4.17578125 19.91796875 C-7.26334055 20.23958951 -9.31593686 20.4052139 -12.05078125 18.85546875 C-13.85865942 15.74190079 -13.67676667 13.4248667 -13.17578125 9.91796875 C-10.22631917 7.14726195 -8.40989799 6.92948269 -4.36328125 6.73046875 C-3.31140625 6.79234375 -2.25953125 6.85421875 -1.17578125 6.91796875 C-1.50578125 5.59796875 -1.83578125 4.27796875 -2.17578125 2.91796875 C-5.14578125 2.91796875 -8.11578125 2.91796875 -11.17578125 2.91796875 C-11.50578125 1.92796875 -11.83578125 0.93796875 -12.17578125 -0.08203125 C-8.00079689 -1.4736927 -4.0455601 -2.01188536 0 0 Z " fill="#999CA0" transform="translate(175.17578125,892.08203125)"/>
<path d="M0 0 C2.30275556 1.8670991 3.67823871 3.35647741 5 6 C5 7.98 5 9.96 5 12 C-1.435 12.495 -1.435 12.495 -8 13 C-7.34 14.32 -6.68 15.64 -6 17 C-3.03 17 -0.06 17 3 17 C3 17.99 3 18.98 3 20 C-0.10048928 21.55024464 -2.57894218 21.28992015 -6 21 C-9.38939556 18.86320715 -10.72582557 17.8225233 -12 14 C-12.37066773 8.99598565 -12.09881835 6.01698676 -9 2 C-5.50875983 -0.32749345 -4.10777749 -0.50299316 0 0 Z " fill="#9A9DA0" transform="translate(837,891)"/>
<path d="M0 0 C2.30275556 1.8670991 3.67823871 3.35647741 5 6 C5 7.98 5 9.96 5 12 C-1.435 12.495 -1.435 12.495 -8 13 C-7.34 14.32 -6.68 15.64 -6 17 C-3.03 17 -0.06 17 3 17 C3 17.99 3 18.98 3 20 C-0.10048928 21.55024464 -2.57894218 21.28992015 -6 21 C-9.38939556 18.86320715 -10.72582557 17.8225233 -12 14 C-12.37066773 8.99598565 -12.09881835 6.01698676 -9 2 C-5.50875983 -0.32749345 -4.10777749 -0.50299316 0 0 Z " fill="#9A9DA0" transform="translate(150,891)"/>
<path d="M0 0 C0.99 0 1.98 0 3 0 C3.99 4.62 4.98 9.24 6 14 C6.66 10.7 7.32 7.4 8 4 C9.65 3.67 11.3 3.34 13 3 C13.66 6.3 14.32 9.6 15 13 C16.81298005 11.18701995 16.67555005 8.38818302 17.0625 5.9375 C17.23910156 4.83277344 17.41570312 3.72804688 17.59765625 2.58984375 C17.73042969 1.73519531 17.86320312 0.88054688 18 0 C18.99 0 19.98 0 21 0 C20.48462048 7.13393752 19.55994099 14.01812817 18 21 C16.35 21 14.7 21 13 21 C12.34 17.7 11.68 14.4 11 11 C9.87119943 14.31114834 8.78697325 17.58978257 8 21 C6.35 21 4.7 21 3 21 C2.49432271 18.43850372 1.99529868 15.87600535 1.5 13.3125 C1.35691406 12.59126953 1.21382812 11.87003906 1.06640625 11.12695312 C0.34428113 7.36158641 -0.1824976 3.85526187 0 0 Z " fill="#9A9DA0" transform="translate(1068,891)"/>
<path d="M0 0 C1.32 0.33 2.64 0.66 4 1 C5.67422986 0.70700977 7.34178227 0.37309899 9 0 C12.28453 0 14.84698314 0.23304995 18 1 C19 2 19 2 19.11352539 3.85766602 C19.10828857 4.64842529 19.10305176 5.43918457 19.09765625 6.25390625 C19.09443359 7.10791016 19.09121094 7.96191406 19.08789062 8.84179688 C19.07951172 9.73962891 19.07113281 10.63746094 19.0625 11.5625 C19.05798828 12.46419922 19.05347656 13.36589844 19.04882812 14.29492188 C19.03700225 16.53001314 19.0205222 18.76497437 19 21 C18.01 21 17.02 21 16 21 C16 15.06 16 9.12 16 3 C14.68 3 13.36 3 12 3 C11.67 8.94 11.34 14.88 11 21 C10.01 21 9.02 21 8 21 C8 15.06 8 9.12 8 3 C6.68 3 5.36 3 4 3 C3.67 8.94 3.34 14.88 3 21 C2.01 21 1.02 21 0 21 C0 14.07 0 7.14 0 0 Z " fill="#95989C" transform="translate(946,891)"/>
<path d="M0 0 C1.32 0.33 2.64 0.66 4 1 C5.67422986 0.70700977 7.34178227 0.37309899 9 0 C12.28453 0 14.84698314 0.23304995 18 1 C19 2 19 2 19.11352539 3.85766602 C19.10828857 4.64842529 19.10305176 5.43918457 19.09765625 6.25390625 C19.09443359 7.10791016 19.09121094 7.96191406 19.08789062 8.84179688 C19.07951172 9.73962891 19.07113281 10.63746094 19.0625 11.5625 C19.05798828 12.46419922 19.05347656 13.36589844 19.04882812 14.29492188 C19.03700225 16.53001314 19.0205222 18.76497437 19 21 C18.01 21 17.02 21 16 21 C16 15.06 16 9.12 16 3 C14.68 3 13.36 3 12 3 C11.67 8.94 11.34 14.88 11 21 C10.01 21 9.02 21 8 21 C8 15.06 8 9.12 8 3 C6.68 3 5.36 3 4 3 C3.67 8.94 3.34 14.88 3 21 C2.01 21 1.02 21 0 21 C0 14.07 0 7.14 0 0 Z " fill="#95989C" transform="translate(725,891)"/>
<path d="M0 0 C2.4375 1 2.4375 1 4 2 C4 2.99 4 3.98 4 5 C3.484375 4.835 2.96875 4.67 2.4375 4.5 C-0.73363876 3.84951 -3.77218334 3.9379266 -7 4 C-7.33 5.32 -7.66 6.64 -8 8 C-7.39671875 8.25394531 -6.7934375 8.50789062 -6.171875 8.76953125 C2.67707875 12.58029037 2.67707875 12.58029037 5 15 C5.9375 17.375 5.9375 17.375 6 20 C4.37844371 23.48634601 3.23546708 24.84302194 0 27 C-5.4266032 27.43762929 -8.50814656 27.36889008 -13 24 C-12.67 23.34 -12.34 22.68 -12 22 C-11.484375 22.165 -10.96875 22.33 -10.4375 22.5 C-6.61349155 23.28441199 -2.55708573 23.77854287 1 22 C1 20.35 1 18.7 1 17 C0.14535156 16.57847656 -0.70929687 16.15695312 -1.58984375 15.72265625 C-2.69457031 15.17480469 -3.79929687 14.62695312 -4.9375 14.0625 C-6.59072266 13.24458984 -6.59072266 13.24458984 -8.27734375 12.41015625 C-11 11 -11 11 -12 10 C-12.375 7.1875 -12.375 7.1875 -12 4 C-8.37283367 -0.17673698 -5.37688348 -0.58656911 0 0 Z " fill="#999CA0" transform="translate(714,885)"/>
<path d="M0 0 C0.99 0 1.98 0 3 0 C3.33 3.3 3.66 6.6 4 10 C4.99 9.34 5.98 8.68 7 8 C10.625 8.25 10.625 8.25 14 9 C15.1482685 11.296537 15.11561175 12.58313167 15.09765625 15.1328125 C15.09443359 15.93847656 15.09121094 16.74414062 15.08789062 17.57421875 C15.07951172 18.41597656 15.07113281 19.25773438 15.0625 20.125 C15.05798828 20.97449219 15.05347656 21.82398438 15.04882812 22.69921875 C15.03702874 24.79950909 15.01909306 26.8997633 15 29 C14.01 29 13.02 29 12 29 C11.67 23.39 11.34 17.78 11 12 C9.35 12 7.7 12 6 12 C3.15385976 14.84614024 3.54420924 17.80369142 3.375 21.625 C3.33632812 22.33140625 3.29765625 23.0378125 3.2578125 23.765625 C3.16352276 25.50998524 3.08067109 27.25495691 3 29 C2.01 29 1.02 29 0 29 C0 19.43 0 9.86 0 0 Z " fill="#95989C" transform="translate(212,883)"/>
<path d="M0 0 C0.99 0 1.98 0 3 0 C4.65 4.95 6.3 9.9 8 15 C10.04650391 11.93024413 10.99704565 9.30915848 12.125 5.8125 C12.47820313 4.72582031 12.83140625 3.63914062 13.1953125 2.51953125 C13.46085938 1.68808594 13.72640625 0.85664062 14 0 C14.99 0 15.98 0 17 0 C15.90164347 5.69148382 14.42582774 11.22129292 12.6875 16.75 C12.29949219 18.00296875 11.91148437 19.2559375 11.51171875 20.546875 C9.85051296 24.34146395 8.23759858 26.43343168 5 29 C3.68 29 2.36 29 1 29 C1.33 28.01 1.66 27.02 2 26 C4.0625 25.3125 4.0625 25.3125 6 25 C5.26370973 19.5328332 3.57356753 14.55473721 1.72851562 9.390625 C0.55785936 6.01858887 0 3.62192059 0 0 Z " fill="#9A9DA1" transform="translate(506,891)"/>
<path d="M0 0 C0.66 0.33 1.32 0.66 2 1 C2 1.66 2 2.32 2 3 C-0.64 3.33 -3.28 3.66 -6 4 C-6.33 5.98 -6.66 7.96 -7 10 C-5.02 10 -3.04 10 -1 10 C-1 10.99 -1 11.98 -1 13 C-2.98 13 -4.96 13 -7 13 C-7 18.28 -7 23.56 -7 29 C-8.32 29 -9.64 29 -11 29 C-11 23.72 -11 18.44 -11 13 C-12.32 13 -13.64 13 -15 13 C-15 12.01 -15 11.02 -15 10 C-13.68 10 -12.36 10 -11 10 C-10.896875 8.906875 -10.79375 7.81375 -10.6875 6.6875 C-10 3 -10 3 -8.875 1.0625 C-5.93234995 -0.60500169 -3.30412652 -0.24030011 0 0 Z " fill="#9FA1A5" transform="translate(571,883)"/>
<path d="M0 0 C4.95 0 9.9 0 15 0 C15 0.99 15 1.98 15 3 C13.02 3 11.04 3 9 3 C9 9.93 9 16.86 9 24 C10.98 24 12.96 24 15 24 C15 24.99 15 25.98 15 27 C10.05 27 5.1 27 0 27 C0 26.01 0 25.02 0 24 C1.98 24 3.96 24 6 24 C6 17.07 6 10.14 6 3 C4.02 3 2.04 3 0 3 C0 2.01 0 1.02 0 0 Z " fill="#989B9F" transform="translate(359,885)"/>
<path d="M0 0 C0.99 0 1.98 0 3 0 C3.33 0.66 3.66 1.32 4 2 C4.99 1.34 5.98 0.68 7 0 C10.625 0.25 10.625 0.25 14 1 C15.1482685 3.296537 15.11561175 4.58313167 15.09765625 7.1328125 C15.09443359 7.93847656 15.09121094 8.74414062 15.08789062 9.57421875 C15.07951172 10.41597656 15.07113281 11.25773438 15.0625 12.125 C15.05798828 12.97449219 15.05347656 13.82398438 15.04882812 14.69921875 C15.03702874 16.79950909 15.01909306 18.8997633 15 21 C14.01 21 13.02 21 12 21 C11.67 15.06 11.34 9.12 11 3 C5.52174919 4.32917961 5.52174919 4.32917961 4 6 C3.76346477 8.52596259 3.57826308 11.03107207 3.4375 13.5625 C3.39431641 14.27341797 3.35113281 14.98433594 3.30664062 15.71679688 C3.20028223 17.47761912 3.09961154 19.2387832 3 21 C2.01 21 1.02 21 0 21 C0 14.07 0 7.14 0 0 Z " fill="#96999D" transform="translate(261,891)"/>
<path d="M0 0 C1.98 0 3.96 0 6 0 C6.33 0.99 6.66 1.98 7 3 C7.37125 2.505 7.7425 2.01 8.125 1.5 C10.74694393 -0.59755514 12.73842472 -0.21743835 16 0 C16 2.31 16 4.62 16 7 C15.01 7 14.02 7 13 7 C13 5.68 13 4.36 13 3 C10.34654023 3.97293525 9.2102956 4.62368156 7.8125 7.125 C6.78627268 10.75626592 6.38181433 14.24549242 6 18 C7.65 18.33 9.3 18.66 11 19 C11 19.66 11 20.32 11 21 C7.37 21 3.74 21 0 21 C0 20.01 0 19.02 0 18 C0.99 18 1.98 18 3 18 C3 13.05 3 8.1 3 3 C2.01 3 1.02 3 0 3 C0 2.01 0 1.02 0 0 Z " fill="#9A9DA0" transform="translate(1022,891)"/>
<path d="M0 0 C1.98 0 3.96 0 6 0 C6.33 0.99 6.66 1.98 7 3 C7.37125 2.505 7.7425 2.01 8.125 1.5 C10.74694393 -0.59755514 12.73842472 -0.21743835 16 0 C16 2.31 16 4.62 16 7 C15.01 7 14.02 7 13 7 C13 5.68 13 4.36 13 3 C10.34654023 3.97293525 9.2102956 4.62368156 7.8125 7.125 C6.78627268 10.75626592 6.38181433 14.24549242 6 18 C7.65 18.33 9.3 18.66 11 19 C11 19.66 11 20.32 11 21 C7.37 21 3.74 21 0 21 C0 20.01 0 19.02 0 18 C0.99 18 1.98 18 3 18 C3 13.05 3 8.1 3 3 C2.01 3 1.02 3 0 3 C0 2.01 0 1.02 0 0 Z " fill="#9A9DA0" transform="translate(997,891)"/>
<path d="M0 0 C1.98 0 3.96 0 6 0 C6.33 0.99 6.66 1.98 7 3 C7.37125 2.505 7.7425 2.01 8.125 1.5 C10.74694393 -0.59755514 12.73842472 -0.21743835 16 0 C16 2.31 16 4.62 16 7 C15.01 7 14.02 7 13 7 C13 5.68 13 4.36 13 3 C10.34654023 3.97293525 9.2102956 4.62368156 7.8125 7.125 C6.78627268 10.75626592 6.38181433 14.24549242 6 18 C7.65 18.33 9.3 18.66 11 19 C11 19.66 11 20.32 11 21 C7.37 21 3.74 21 0 21 C0 20.01 0 19.02 0 18 C0.99 18 1.98 18 3 18 C3 13.05 3 8.1 3 3 C2.01 3 1.02 3 0 3 C0 2.01 0 1.02 0 0 Z " fill="#9A9DA0" transform="translate(850,891)"/>
<path d="M0 0 C1.98 0 3.96 0 6 0 C6.33 0.99 6.66 1.98 7 3 C7.37125 2.505 7.7425 2.01 8.125 1.5 C10.74694393 -0.59755514 12.73842472 -0.21743835 16 0 C16 2.31 16 4.62 16 7 C15.01 7 14.02 7 13 7 C13 5.68 13 4.36 13 3 C10.34654023 3.97293525 9.2102956 4.62368156 7.8125 7.125 C6.78627268 10.75626592 6.38181433 14.24549242 6 18 C7.65 18.33 9.3 18.66 11 19 C11 19.66 11 20.32 11 21 C7.37 21 3.74 21 0 21 C0 20.01 0 19.02 0 18 C0.99 18 1.98 18 3 18 C3 13.05 3 8.1 3 3 C2.01 3 1.02 3 0 3 C0 2.01 0 1.02 0 0 Z " fill="#9A9DA0" transform="translate(776,891)"/>
<path d="M0 0 C1.98 0 3.96 0 6 0 C6.33 0.99 6.66 1.98 7 3 C7.37125 2.505 7.7425 2.01 8.125 1.5 C10.74694393 -0.59755514 12.73842472 -0.21743835 16 0 C16 2.31 16 4.62 16 7 C15.01 7 14.02 7 13 7 C13 5.68 13 4.36 13 3 C10.34654023 3.97293525 9.2102956 4.62368156 7.8125 7.125 C6.78627268 10.75626592 6.38181433 14.24549242 6 18 C7.65 18.33 9.3 18.66 11 19 C11 19.66 11 20.32 11 21 C7.37 21 3.74 21 0 21 C0 20.01 0 19.02 0 18 C0.99 18 1.98 18 3 18 C3 13.05 3 8.1 3 3 C2.01 3 1.02 3 0 3 C0 2.01 0 1.02 0 0 Z " fill="#9A9DA0" transform="translate(605,891)"/>
<path d="M0 0 C2.5625 0.4375 2.5625 0.4375 4.4375 2.4375 C6.00592407 6.61996417 5.49220342 9.0750455 4.5625 13.4375 C2.5625 15.4375 2.5625 15.4375 0.125 15.875 C-2.4375 15.4375 -2.4375 15.4375 -4.3125 13.4375 C-5.88092407 9.25503583 -5.36720342 6.7999545 -4.4375 2.4375 C-2.4375 0.4375 -2.4375 0.4375 0 0 Z " fill="#EBEBEC" transform="translate(1053.4375,893.5625)"/>
<path d="M0 0 C2.5625 0.4375 2.5625 0.4375 4.4375 2.4375 C6.00592407 6.61996417 5.49220342 9.0750455 4.5625 13.4375 C2.5625 15.4375 2.5625 15.4375 0.125 15.875 C-2.4375 15.4375 -2.4375 15.4375 -4.3125 13.4375 C-5.88092407 9.25503583 -5.36720342 6.7999545 -4.4375 2.4375 C-2.4375 0.4375 -2.4375 0.4375 0 0 Z " fill="#EBEBEC" transform="translate(980.4375,893.5625)"/>
<path d="M0 0 C2.5625 0.4375 2.5625 0.4375 4.4375 2.4375 C6.00592407 6.61996417 5.49220342 9.0750455 4.5625 13.4375 C2.5625 15.4375 2.5625 15.4375 0.125 15.875 C-2.4375 15.4375 -2.4375 15.4375 -4.3125 13.4375 C-5.88092407 9.25503583 -5.36720342 6.7999545 -4.4375 2.4375 C-2.4375 0.4375 -2.4375 0.4375 0 0 Z " fill="#EBEBEC" transform="translate(931.4375,893.5625)"/>
<path d="M0 0 C2.5625 0.4375 2.5625 0.4375 4.4375 2.4375 C6.00592407 6.61996417 5.49220342 9.0750455 4.5625 13.4375 C2.5625 15.4375 2.5625 15.4375 0.125 15.875 C-2.4375 15.4375 -2.4375 15.4375 -4.3125 13.4375 C-5.88092407 9.25503583 -5.36720342 6.7999545 -4.4375 2.4375 C-2.4375 0.4375 -2.4375 0.4375 0 0 Z " fill="#EBEBEC" transform="translate(587.4375,893.5625)"/>
<path d="M0 0 C2.5625 0.4375 2.5625 0.4375 4.4375 2.4375 C6.00592407 6.61996417 5.49220342 9.0750455 4.5625 13.4375 C2.5625 15.4375 2.5625 15.4375 0.125 15.875 C-2.4375 15.4375 -2.4375 15.4375 -4.3125 13.4375 C-5.88092407 9.25503583 -5.36720342 6.7999545 -4.4375 2.4375 C-2.4375 0.4375 -2.4375 0.4375 0 0 Z " fill="#EBEBEC" transform="translate(440.4375,893.5625)"/>
<path d="M0 0 C0.99 0 1.98 0 3 0 C3 1.65 3 3.3 3 5 C5.31 5 7.62 5 10 5 C9.67 5.99 9.34 6.98 9 8 C7.02 8 5.04 8 3 8 C3.33 12.62 3.66 17.24 4 22 C5.134375 22.12375 6.26875 22.2475 7.4375 22.375 C9.2009375 22.684375 9.2009375 22.684375 11 23 C11.33 23.66 11.66 24.32 12 25 C8.95016004 26.52491998 6.3576631 26.23562548 3 26 C1.2890625 24.96484375 1.2890625 24.96484375 0 23 C-0.2172101 20.35003674 -0.28351554 17.94923442 -0.1875 15.3125 C-0.17396484 14.61060547 -0.16042969 13.90871094 -0.14648438 13.18554688 C-0.11120182 11.45670171 -0.05739583 9.72825235 0 8 C-1.65 8 -3.3 8 -5 8 C-5 7.01 -5 6.02 -5 5 C-3.35 5 -1.7 5 0 5 C0 3.35 0 1.7 0 0 Z " fill="#999CA0" transform="translate(805,886)"/>
<path d="M0 0 C2.4375 0.375 2.4375 0.375 4.4375 2.375 C4.703125 4.90625 4.703125 4.90625 4.6875 7.875 C4.69265625 8.8546875 4.6978125 9.834375 4.703125 10.84375 C4.4375 13.375 4.4375 13.375 2.4375 15.375 C-1.1875 15 -1.1875 15 -4.5625 14.375 C-6.01018692 10.03193925 -6.41929646 6.13368747 -4.375 1.9375 C-2.5625 0.375 -2.5625 0.375 0 0 Z " fill="#EBEBEB" transform="translate(465.5625,893.625)"/>
<path d="M0 0 C6.6 0 13.2 0 20 0 C20 0.99 20 1.98 20 3 C17.36 3 14.72 3 12 3 C12 10.92 12 18.84 12 27 C11.01 27 10.02 27 9 27 C9 19.08 9 11.16 9 3 C6.36 3 3.72 3 1 3 C0.67 2.01 0.34 1.02 0 0 Z " fill="#979A9E" transform="translate(896,885)"/>
<path d="M0 0 C6.6 0 13.2 0 20 0 C20 0.99 20 1.98 20 3 C17.36 3 14.72 3 12 3 C12 10.92 12 18.84 12 27 C11.01 27 10.02 27 9 27 C9 19.08 9 11.16 9 3 C6.36 3 3.72 3 1 3 C0.67 2.01 0.34 1.02 0 0 Z " fill="#979A9E" transform="translate(406,885)"/>
<path d="M0 0 C6.6 0 13.2 0 20 0 C20 0.99 20 1.98 20 3 C17.36 3 14.72 3 12 3 C12 10.92 12 18.84 12 27 C11.01 27 10.02 27 9 27 C9 19.08 9 11.16 9 3 C6.36 3 3.72 3 1 3 C0.67 2.01 0.34 1.02 0 0 Z " fill="#979A9E" transform="translate(111,885)"/>
<path d="M0 0 C0.79921875 0.11085938 1.5984375 0.22171875 2.421875 0.3359375 C3.32679688 0.47902344 3.32679688 0.47902344 4.25 0.625 C4.25 1.615 4.25 2.605 4.25 3.625 C3.62351563 3.59019531 2.99703125 3.55539062 2.3515625 3.51953125 C1.53429687 3.49246094 0.71703125 3.46539063 -0.125 3.4375 C-1.34316406 3.38529297 -1.34316406 3.38529297 -2.5859375 3.33203125 C-3.30007812 3.42871094 -4.01421875 3.52539062 -4.75 3.625 C-7.20811625 7.31217438 -7.06118164 9.26845704 -6.75 13.625 C-5.76 15.11 -5.76 15.11 -4.75 16.625 C-2.54274927 16.98862818 -2.54274927 16.98862818 -0.125 16.8125 C0.69226563 16.78542969 1.50953125 16.75835938 2.3515625 16.73046875 C3.29128906 16.67826172 3.29128906 16.67826172 4.25 16.625 C4.25 17.615 4.25 18.605 4.25 19.625 C0.61217368 20.83760877 -1.92735999 21.02044552 -5.75 20.625 C-9.26904751 18.10046592 -10.51890401 16.40494896 -11.75 12.25 C-11.75 7.93065444 -10.87898317 5.36907386 -8.75 1.625 C-5.68034277 -0.44124239 -3.60790878 -0.53057482 0 0 Z " fill="#9B9DA1" transform="translate(198.75,891.375)"/>
<path d="M0 0 C2.97 0 5.94 0 9 0 C9 5.94 9 11.88 9 18 C10.98 18 12.96 18 15 18 C15 18.99 15 19.98 15 21 C10.05 21 5.1 21 0 21 C0 20.01 0 19.02 0 18 C1.98 18 3.96 18 6 18 C6 13.05 6 8.1 6 3 C4.02 3 2.04 3 0 3 C0 2.01 0 1.02 0 0 Z " fill="#999B9F" transform="translate(238,891)"/>
<path d="M0 0 C0.66 0.66 1.32 1.32 2 2 C4.51915815 2.54444927 7.03736797 2.88882561 9.58984375 3.2421875 C12.59656295 4.18757409 13.50364243 5.26263598 15 8 C14.09021715 11.82108796 13.32708333 12.78194445 10 15 C7.625 15.30078125 7.625 15.30078125 5 15.3125 C3.700625 15.33763672 3.700625 15.33763672 2.375 15.36328125 C0 15 0 15 -1.8125 13.66796875 C-3 12 -3 12 -3 9 C-2.01 9 -1.02 9 0 9 C0.33 9.66 0.66 10.32 1 11 C3.97 11 6.94 11 10 11 C10.33 9.68 10.66 8.36 11 7 C7.37 6.67 3.74 6.34 0 6 C-0.33 4.35 -0.66 2.7 -1 1 C-0.67 0.67 -0.34 0.34 0 0 Z " fill="#9B9EA1" transform="translate(288,905)"/>
<path d="M0 0 C3.0625 -0.25 3.0625 -0.25 6 0 C7 1 7 1 7.125 4 C7 7 7 7 6 8 C4.00041636 8.04080783 1.99954746 8.04254356 0 8 C-1.125 5.6875 -1.125 5.6875 -2 3 C-1.34 2.01 -0.68 1.02 0 0 Z " fill="#EBEBEB" transform="translate(290,894)"/>
<path d="M0 0 C2.87579981 4.31369972 4 7.80734761 4 13 C1.36 13 -1.28 13 -4 13 C-2.68 8.71 -1.36 4.42 0 0 Z " fill="#E9E9EA" transform="translate(342,889)"/>
<path d="M0 0 C1.670625 0.061875 1.670625 0.061875 3.375 0.125 C3.5 2.5 3.5 2.5 3.375 5.125 C1.375 7.125 1.375 7.125 -1.75 7.25 C-3.173125 7.188125 -3.173125 7.188125 -4.625 7.125 C-5.25 4.75 -5.25 4.75 -5.625 2.125 C-3.625 0.125 -3.625 0.125 0 0 Z " fill="#EBEBEC" transform="translate(759.625,901.875)"/>
<path d="M0 0 C1.670625 0.061875 1.670625 0.061875 3.375 0.125 C3.5 2.5 3.5 2.5 3.375 5.125 C1.375 7.125 1.375 7.125 -1.75 7.25 C-3.173125 7.188125 -3.173125 7.188125 -4.625 7.125 C-5.25 4.75 -5.25 4.75 -5.625 2.125 C-3.625 0.125 -3.625 0.125 0 0 Z " fill="#EBEBEC" transform="translate(661.625,901.875)"/>
<path d="M0 0 C1.670625 0.061875 1.670625 0.061875 3.375 0.125 C3.5 2.5 3.5 2.5 3.375 5.125 C1.375 7.125 1.375 7.125 -1.75 7.25 C-3.173125 7.188125 -3.173125 7.188125 -4.625 7.125 C-5.25 4.75 -5.25 4.75 -5.625 2.125 C-3.625 0.125 -3.625 0.125 0 0 Z " fill="#EBEBEC" transform="translate(489.625,901.875)"/>
<path d="M0 0 C1.670625 0.061875 1.670625 0.061875 3.375 0.125 C3.5 2.5 3.5 2.5 3.375 5.125 C1.375 7.125 1.375 7.125 -1.75 7.25 C-3.173125 7.188125 -3.173125 7.188125 -4.625 7.125 C-5.25 4.75 -5.25 4.75 -5.625 2.125 C-3.625 0.125 -3.625 0.125 0 0 Z " fill="#EBEBEC" transform="translate(170.625,901.875)"/>
<path d="M0 0 C1.010625 0.0825 2.02125 0.165 3.0625 0.25 C5.0625 3.25 5.0625 3.25 5.0625 6.25 C1.4325 6.25 -2.1975 6.25 -5.9375 6.25 C-3.55864537 0.30286344 -3.55864537 0.30286344 0 0 Z " fill="#EAEAEA" transform="translate(833.9375,893.75)"/>
<path d="M0 0 C1.010625 0.0825 2.02125 0.165 3.0625 0.25 C5.0625 3.25 5.0625 3.25 5.0625 6.25 C1.4325 6.25 -2.1975 6.25 -5.9375 6.25 C-3.55864537 0.30286344 -3.55864537 0.30286344 0 0 Z " fill="#EAEAEA" transform="translate(146.9375,893.75)"/>
<path d="M0 0 C1.98 0.495 1.98 0.495 4 1 C3.67 2.32 3.34 3.64 3 5 C1.68 4.67 0.36 4.34 -1 4 C-0.67 2.68 -0.34 1.36 0 0 Z " fill="#A2A4A7" transform="translate(243,882)"/>
</svg>
