<?xml version="1.0" encoding="utf-8"?>
<!DOCTYPE svg PUBLIC "-//W3C//DTD SVG 20010904//EN" "http://www.w3.org/TR/2001/REC-SVG-20010904/DTD/svg10.dtd">
<svg version="1.0" width="480pt" height="480pt" viewBox="0 0 480 480" preserveAspectRatio="xMidYMid meet" xmlns="http://www.w3.org/2000/svg">
  <g transform="translate(0,480)scale(.075,.075)">
    <path id="path1" d="M 1990 -6396 c 0 24 111 309 182 468 l 21 47 -21 48 c -12 26 -49 111 -83 188 -47 107 -64 158 -72 215 -16 129 -12 153 35 238 24 42 45 81 47 87 20 50 131 296 161 355 21 42 82 148 136 235 276 452 394 652 456 774 38 74 66 136 64 139 -3 2 -26 6 -52 8 -104 8 -236 102 -289 204 -12 25 -33 54 -45 65 -58 53 -99 177 -100 301 0 84 54 229 118 313 l 25 34 -25 21 c -37 31 -75 95 -83 141 -8 50 -63 165 -78 165 -6 0 -82 -23 -169 -50 -87 -28 -186 -59 -221 -70 -78 -25 -110 -25 -162 -1 -49 22 -225 155 -363 273 -207 178 -267 228 -276 228 -5 0 -6 -61 -2 -148 4 -81 11 -368 15 -637 8 -542 10 -525 -54 -525 -18 0 -82 -20 -141 -45 -84 -35 -159 -56 -329 -91 -120 -25 -240 -54 -265 -64 -25 -10 -53 -21 -63 -24 -14 -4 -17 -17 -17 -74 0 -39 -5 -73 -12 -80 -20 -20 -73 -15 -303 33 -22 5 -25 11 -25 45 0 45 -10 44 160 10 52 -10 97 -17 99 -15 2 3 3 120 2 262 -1 152 5 375 15 545 17 279 17 288 -1 328 -18 40 -18 50 -1 368 9 180 18 426 19 546 2 189 4 220 18 229 9 6 24 7 33 4 14 -6 16 -41 16 -344 0 -185 -5 -398 -11 -473 -7 -100 -7 -160 2 -230 7 -60 11 -249 11 -515 -1 -381 4 -515 20 -530 3 -3 41 3 84 14 44 11 148 34 232 50 101 21 195 48 280 80 70 27 133 51 140 53 16 4 17 293 2 866 -12 438 -15 1325 -6 1341 24 38 101 -42 235 -241 124 -186 208 -286 274 -329 33 -21 64 -39 68 -39 8 0 122 161 170 242 28 47 256 319 279 333 17 11 11 21 -28 42 -20 12 -49 34 -64 50 -56 58 -149 201 -203 310 -30 62 -60 115 -65 118 -5 3 -40 65 -76 136 -36 71 -81 153 -100 180 -19 28 -34 57 -34 64 0 14 -25 79 -40 108 -10 16 109 17 2430 17 l 2440 0 0 -608 0 -607 -37 -40 c -169 -186 -273 -315 -273 -339 0 -9 -11 -21 -24 -26 -35 -13 -49 -42 -31 -66 8 -10 14 -27 15 -36 0 -25 -32 -23 -48 2 -7 12 -17 18 -22 15 -6 -4 -4 -15 5 -28 31 -44 11 -83 -24 -46 -19 21 -41 19 -41 -5 0 -7 13 -22 30 -34 16 -13 30 -27 30 -33 0 -21 -33 -21 -61 0 -25 19 -33 20 -45 10 -14 -11 -12 -14 10 -26 26 -14 34 -37 16 -48 -5 -3 -23 1 -40 10 -17 9 -35 13 -40 10 -19 -12 -10 -35 20 -50 57 -30 22 -59 -37 -31 -27 13 -38 14 -49 5 -20 -16 -18 -24 11 -37 60 -28 77 -43 65 -57 -10 -12 -17 -12 -51 0 -21 8 -46 20 -54 26 -14 11 -35 5 -35 -10 0 -4 25 -19 55 -34 52 -25 68 -48 44 -62 -5 -4 -39 8 -75 26 -50 26 -67 30 -76 21 -18 -18 1 -42 55 -70 48 -24 63 -52 27 -52 -29 0 -86 26 -109 50 -15 15 -21 17 -30 6 -17 -20 11 -49 94 -101 73 -46 95 -75 55 -75 -22 0 -100 44 -160 91 -23 17 -43 29 -45 27 -3 -3 4 -23 15 -46 21 -43 66 -83 113 -101 27 -10 36 -34 17 -46 -5 -3 -38 9 -72 27 -51 26 -67 41 -83 75 -11 23 -23 42 -26 43 -3 0 -22 -24 -41 -52 -40 -60 -233 -309 -273 -352 -21 -23 -31 -27 -53 -21 -15 5 -73 7 -130 6 -127 -1 -278 -36 -400 -90 -48 -22 -121 -53 -163 -70 -204 -79 -545 -390 -686 -626 -20 -33 -56 -88 -80 -122 -68 -97 -194 -364 -233 -493 l -35 -115 0 -345 0 -345 68 -187 c 105 -293 132 -365 177 -478 127 -314 228 -489 327 -561 29 -22 75 -60 103 -84 57 -50 168 -115 198 -115 34 0 52 -11 67 -41 8 -15 15 -30 15 -34 0 -3 -531 -5 -1180 -5 -649 0 -1180 2 -1180 4 z m 1128 3156 c 80 135 214 351 297 480 157 242 322 527 311 537 -3 3 -32 0 -65 -7 -78 -16 -107 -8 -128 35 -14 29 -34 44 -117 85 -56 27 -127 59 -159 69 -32 11 -71 29 -86 41 -39 27 -85 25 -177 -6 -93 -32 -154 -29 -190 9 -24 26 -108 50 -292 82 -135 23 -198 45 -241 81 -46 40 -53 38 -154 -29 -32 -21 -87 -52 -123 -69 -35 -16 -64 -34 -64 -40 0 -12 81 -48 127 -55 33 -6 36 -4 29 13 -5 10 -10 36 -13 56 -5 32 -3 38 12 38 10 0 26 -7 35 -15 9 -8 46 -26 84 -40 l 68 -26 -22 36 c -12 20 -19 42 -16 50 6 17 47 20 62 5 9 -9 212 -81 312 -111 34 -10 43 -35 16 -46 -8 -3 -78 15 -156 41 -77 26 -142 45 -145 43 -2 -3 10 -17 27 -33 65 -62 30 -73 -95 -28 -114 41 -126 42 -95 10 14 -16 20 -31 16 -42 -5 -14 -15 -16 -66 -10 -33 4 -78 13 -100 21 -47 17 -52 5 -10 -25 35 -25 37 -35 11 -49 -13 -8 -46 0 -132 29 -132 46 -120 43 -118 28 5 -44 -8 -47 -67 -19 -21 10 -114 51 -207 91 -119 51 -175 81 -192 102 -29 34 -31 46 -9 55 9 3 26 -5 42 -20 25 -24 312 -159 321 -151 2 2 -2 10 -8 18 -14 17 -7 36 14 36 8 0 29 -9 47 -19 18 -11 64 -31 103 -44 39 -14 78 -28 89 -32 11 -5 17 -4 14 1 -2 5 -11 24 -18 41 -13 30 -17 32 -52 27 -27 -5 -45 -2 -63 10 -15 10 -65 32 -114 51 -48 19 -138 61 -201 94 -122 63 -234 106 -256 97 -9 -4 -14 -22 -14 -55 0 -48 1 -49 78 -118 42 -38 104 -91 137 -118 33 -28 85 -73 116 -101 69 -62 251 -203 316 -245 61 -39 59 -39 382 65 148 47 188 54 221 36 25 -13 87 -143 99 -203 9 -51 50 -112 80 -122 13 -4 40 8 82 35 68 44 75 45 133 29 103 -28 205 -141 206 -226 0 -35 -7 -50 -51 -102 -89 -105 -178 -129 -246 -67 -21 18 -52 40 -69 49 -41 21 -48 43 -24 67 19 19 20 19 67 -1 26 -12 57 -32 68 -45 34 -39 69 -32 126 27 27 28 49 60 49 71 0 41 -43 98 -96 128 -28 17 -58 30 -67 30 -29 0 -132 -77 -169 -127 -20 -27 -54 -85 -75 -128 -36 -77 -38 -84 -37 -180 0 -113 17 -163 74 -225 17 -19 42 -55 55 -80 46 -89 134 -150 238 -165 26 -4 50 -12 54 -18 3 -5 13 3 21 19 8 16 80 139 160 274 z m 574 1097 c 24 3 43 1 53 -7 13 -11 18 -10 30 7 8 11 30 39 50 63 19 23 34 44 33 46 -29 28 -548 195 -703 226 -70 14 -102 38 -111 84 -7 39 11 74 109 213 104 147 249 363 245 365 -2 2 -41 8 -88 15 -47 7 -188 40 -315 72 -286 74 -329 85 -595 149 -118 29 -242 61 -275 71 -32 10 -60 17 -62 15 -1 -1 5 -12 13 -25 26 -36 95 -81 125 -81 31 0 59 -23 59 -49 0 -22 -23 -51 -193 -248 -71 -81 -136 -161 -144 -178 -9 -17 -49 -78 -89 -137 -41 -59 -74 -111 -74 -115 0 -4 -19 -26 -42 -48 l -43 -40 -100 -5 -100 -5 65 -37 c 36 -20 106 -52 156 -71 50 -20 100 -41 111 -47 16 -10 34 -5 115 33 53 25 117 59 142 76 62 43 145 81 178 81 18 0 40 -13 65 -38 43 -44 72 -53 327 -102 159 -31 201 -45 225 -74 18 -22 44 -20 126 9 98 34 165 33 224 -4 25 -16 69 -36 97 -45 66 -21 243 -111 272 -138 12 -12 22 -28 22 -36 0 -11 7 -13 28 -8 15 4 44 9 64 13 z m -2141 470 c 80 -6 91 5 38 38 -24 15 -57 39 -73 54 -36 33 -185 231 -255 339 -29 45 -57 82 -62 82 -5 0 -9 -57 -9 -127 0 -117 2 -128 23 -157 13 -17 43 -65 67 -106 24 -41 58 -89 76 -106 32 -31 34 -31 86 -22 29 5 78 8 109 5 z m -301 10 c 0 9 -50 93 -55 93 -3 0 -5 -20 -5 -44 0 -34 4 -46 18 -49 27 -7 42 -8 42 0 z m 540 1357 c 0 39 -4 47 -32 64 -18 12 -34 19 -36 17 -4 -4 60 -125 65 -125 2 0 3 20 3 44 z M 6375 -6390 c 3 6 10 10 16 10 5 0 9 -4 9 -10 0 -6 -7 -10 -16 -10 -8 0 -12 4 -9 10 z M 6145 -6210 c -3 6 -14 10 -24 10 -21 0 -90 50 -91 65 0 6 -21 31 -46 55 -54 54 -108 140 -135 216 -54 152 -62 444 -15 560 49 123 67 157 121 229 113 150 279 268 394 282 l 51 6 0 -717 0 -716 -124 0 c -73 0 -127 4 -131 10 z M 824 -6124 c -49 26 -99 53 -111 60 -12 8 -40 14 -61 14 -21 0 -75 14 -120 30 -46 16 -98 30 -117 30 -20 0 -77 7 -128 15 -133 21 -153 18 -184 -22 -14 -18 -43 -47 -64 -64 l -39 -31 0 51 c 0 48 3 55 53 106 49 50 57 55 98 55 24 0 85 -7 134 -15 49 -8 108 -15 131 -15 22 0 80 -14 129 -30 49 -16 105 -30 124 -30 24 0 76 -20 158 -62 99 -51 126 -61 140 -52 10 6 41 40 68 76 27 36 72 84 98 107 46 39 52 41 112 41 35 0 94 -7 131 -16 37 -8 80 -14 96 -12 29 3 27 5 -54 77 -74 65 -180 183 -189 210 -3 6 -39 5 -104 -4 -55 -8 -124 -15 -153 -15 -28 0 -52 -3 -52 -8 1 -12 106 -72 138 -78 l 30 -6 -5 41 c -8 57 11 61 91 15 67 -39 85 -59 66 -78 -8 -8 -22 -4 -51 12 l -40 23 6 -24 c 4 -15 1 -28 -9 -36 -20 -17 -108 1 -171 35 -27 14 -55 22 -68 19 -15 -4 -64 16 -150 59 -106 53 -125 60 -112 40 19 -29 19 -40 0 -48 -17 -6 -128 54 -170 93 -35 33 -141 111 -151 111 -3 0 1 -12 11 -26 20 -30 14 -54 -14 -54 -13 0 -45 30 -88 82 -37 45 -80 94 -95 109 -27 27 -34 52 -22 83 11 29 32 17 62 -36 16 -29 39 -64 50 -78 l 21 -25 1 33 c 0 40 30 44 54 7 9 -14 51 -50 94 -82 42 -31 94 -73 114 -92 38 -35 53 -26 23 13 -35 46 0 73 43 34 31 -28 184 -120 237 -142 32 -14 36 -14 45 4 8 15 6 22 -12 34 -12 9 -27 16 -34 16 -14 0 -190 106 -234 142 -19 15 -64 68 -100 116 -64 86 -66 87 -125 100 -33 8 -76 20 -96 29 -30 12 -56 13 -148 6 l -111 -8 0 269 0 270 25 -34 c 14 -19 25 -45 25 -59 0 -43 -20 -304 -25 -335 l -5 -29 113 7 c 99 6 119 4 158 -13 24 -10 64 -22 89 -26 67 -11 96 -32 155 -115 29 -41 68 -89 87 -106 41 -40 143 -102 245 -150 l 78 -37 115 13 c 63 8 137 14 165 15 49 0 50 -1 74 -45 36 -68 219 -241 319 -303 47 -29 90 -61 96 -69 16 -26 -19 -58 -61 -58 -47 0 -270 29 -313 40 -19 6 -57 10 -84 10 -46 0 -52 -3 -100 -53 -28 -29 -73 -81 -99 -115 -47 -61 -49 -62 -95 -62 -38 0 -68 10 -138 46 z M 4375 -5293 c -94 21 -174 57 -210 93 -22 22 -48 40 -60 40 -57 0 -129 87 -218 266 -65 130 -87 224 -87 374 0 98 5 141 26 223 29 113 39 136 95 219 53 77 126 148 234 225 106 76 191 117 339 168 107 36 112 37 250 36 160 -2 211 -12 347 -72 124 -55 155 -76 216 -143 69 -76 110 -146 179 -306 57 -133 58 -137 62 -247 4 -93 1 -123 -17 -181 -45 -150 -105 -245 -243 -390 -60 -61 -197 -150 -324 -210 -105 -49 -122 -54 -280 -77 -156 -23 -260 -29 -309 -18 z M 5990 -4673 c -93 15 -164 67 -227 165 -24 38 -28 55 -31 140 -4 84 -1 103 18 142 44 92 167 176 257 176 62 0 144 -37 196 -88 75 -73 82 -90 82 -217 0 -134 -21 -192 -95 -258 -64 -57 -118 -74 -200 -60 z M 6085 -2885 c -28 27 -33 79 -14 150 5 22 19 83 29 135 25 120 57 241 81 302 10 26 30 92 44 145 48 187 125 444 154 518 l 20 50 0 -475 c 0 -392 -2 -472 -13 -458 -10 13 -15 15 -24 6 -17 -17 -15 -27 13 -64 15 -19 25 -46 25 -65 l 0 -33 -36 43 -37 42 -47 -88 c -26 -49 -51 -108 -55 -133 -9 -53 -51 -100 -90 -100 -14 0 -37 11 -50 25 z " />
  </g>
</svg>