<svg id="visual" viewBox="0 0 500 500" width="500" height="500" xmlns="http://www.w3.org/2000/svg" xmlns:xlink="http://www.w3.org/1999/xlink" version="1.1"><rect x="0" y="0" width="500" height="500" fill="#140021"></rect><path d="M0 250L28 250L28 170L56 170L56 174L83 174L83 186L111 186L111 240L139 240L139 235L167 235L167 196L194 196L194 262L222 262L222 168L250 168L250 248L278 248L278 294L306 294L306 189L333 189L333 290L361 290L361 297L389 297L389 212L417 212L417 260L444 260L444 298L472 298L472 200L500 200L500 265L500 501L500 501L472 501L472 501L444 501L444 501L417 501L417 501L389 501L389 501L361 501L361 501L333 501L333 501L306 501L306 501L278 501L278 501L250 501L250 501L222 501L222 501L194 501L194 501L167 501L167 501L139 501L139 501L111 501L111 501L83 501L83 501L56 501L56 501L28 501L28 501L0 501Z" fill="#560090"></path><path d="M0 233L28 233L28 304L56 304L56 285L83 285L83 291L111 291L111 263L139 263L139 253L167 253L167 315L194 315L194 277L222 277L222 221L250 221L250 218L278 218L278 255L306 255L306 282L333 282L333 317L361 317L361 212L389 212L389 287L417 287L417 302L444 302L444 277L472 277L472 302L500 302L500 249L500 501L500 501L472 501L472 501L444 501L444 501L417 501L417 501L389 501L389 501L361 501L361 501L333 501L333 501L306 501L306 501L278 501L278 501L250 501L250 501L222 501L222 501L194 501L194 501L167 501L167 501L139 501L139 501L111 501L111 501L83 501L83 501L56 501L56 501L28 501L28 501L0 501Z" fill="#6100a2"></path><path d="M0 360L28 360L28 309L56 309L56 290L83 290L83 313L111 313L111 270L139 270L139 340L167 340L167 281L194 281L194 284L222 284L222 327L250 327L250 293L278 293L278 276L306 276L306 354L333 354L333 285L361 285L361 282L389 282L389 258L417 258L417 298L444 298L444 260L472 260L472 323L500 323L500 274L500 501L500 501L472 501L472 501L444 501L444 501L417 501L417 501L389 501L389 501L361 501L361 501L333 501L333 501L306 501L306 501L278 501L278 501L250 501L250 501L222 501L222 501L194 501L194 501L167 501L167 501L139 501L139 501L111 501L111 501L83 501L83 501L56 501L56 501L28 501L28 501L0 501Z" fill="#6c00b4"></path><path d="M0 303L28 303L28 371L56 371L56 338L83 338L83 332L111 332L111 294L139 294L139 308L167 308L167 347L194 347L194 297L222 297L222 318L250 318L250 366L278 366L278 381L306 381L306 354L333 354L333 333L361 333L361 334L389 334L389 380L417 380L417 334L444 334L444 361L472 361L472 298L500 298L500 372L500 501L500 501L472 501L472 501L444 501L444 501L417 501L417 501L389 501L389 501L361 501L361 501L333 501L333 501L306 501L306 501L278 501L278 501L250 501L250 501L222 501L222 501L194 501L194 501L167 501L167 501L139 501L139 501L111 501L111 501L83 501L83 501L56 501L56 501L28 501L28 501L0 501Z" fill="#7700c6"></path><path d="M0 390L28 390L28 338L56 338L56 344L83 344L83 414L111 414L111 355L139 355L139 422L167 422L167 390L194 390L194 409L222 409L222 395L250 395L250 402L278 402L278 380L306 380L306 367L333 367L333 424L361 424L361 387L389 387L389 359L417 359L417 394L444 394L444 352L472 352L472 337L500 337L500 344L500 501L500 501L472 501L472 501L444 501L444 501L417 501L417 501L389 501L389 501L361 501L361 501L333 501L333 501L306 501L306 501L278 501L278 501L250 501L250 501L222 501L222 501L194 501L194 501L167 501L167 501L139 501L139 501L111 501L111 501L83 501L83 501L56 501L56 501L28 501L28 501L0 501Z" fill="#8200d9"></path><path d="M0 436L28 436L28 432L56 432L56 451L83 451L83 408L111 408L111 404L139 404L139 420L167 420L167 381L194 381L194 397L222 397L222 414L250 414L250 431L278 431L278 423L306 423L306 380L333 380L333 417L361 417L361 452L389 452L389 445L417 445L417 453L444 453L444 458L472 458L472 386L500 386L500 453L500 501L500 501L472 501L472 501L444 501L444 501L417 501L417 501L389 501L389 501L361 501L361 501L333 501L333 501L306 501L306 501L278 501L278 501L250 501L250 501L222 501L222 501L194 501L194 501L167 501L167 501L139 501L139 501L111 501L111 501L83 501L83 501L56 501L56 501L28 501L28 501L0 501Z" fill="#8e00ec"></path><path d="M0 488L28 488L28 439L56 439L56 473L83 473L83 486L111 486L111 470L139 470L139 478L167 478L167 490L194 490L194 481L222 481L222 451L250 451L250 462L278 462L278 435L306 435L306 467L333 467L333 466L361 466L361 473L389 473L389 428L417 428L417 429L444 429L444 428L472 428L472 482L500 482L500 462L500 501L500 501L472 501L472 501L444 501L444 501L417 501L417 501L389 501L389 501L361 501L361 501L333 501L333 501L306 501L306 501L278 501L278 501L250 501L250 501L222 501L222 501L194 501L194 501L167 501L167 501L139 501L139 501L111 501L111 501L83 501L83 501L56 501L56 501L28 501L28 501L0 501Z" fill="#9900ff"></path></svg>